<svg width="25" height="26" viewBox="0 0 25 26" fill="none" xmlns="http://www.w3.org/2000/svg">
<path d="M17.7604 21.9854C16.7396 22.9749 15.625 22.8187 14.5521 22.3499C13.4167 21.8708 12.375 21.8499 11.1771 22.3499C9.67709 22.9958 8.88542 22.8083 7.98959 21.9854C2.90626 16.7458 3.65626 8.7666 9.42709 8.47494C10.8333 8.54785 11.8125 9.24577 12.6354 9.30827C13.8646 9.05827 15.0417 8.33952 16.3542 8.43327C17.9271 8.55827 19.1146 9.18327 19.8958 10.3083C16.6458 12.2562 17.4167 16.5374 20.3958 17.7354C19.8021 19.2979 19.0313 20.8499 17.75 21.9958L17.7604 21.9854ZM12.5313 8.41244C12.375 6.08952 14.2604 4.17285 16.4271 3.98535C16.7292 6.67285 13.9896 8.67285 12.5313 8.41244Z" fill="#2B2B2B"/>
</svg>
