<svg width="31" height="30" viewBox="0 0 31 30" fill="none" xmlns="http://www.w3.org/2000/svg">
<path d="M2.83398 3.75H4.56648C5.20398 3.75 5.76023 4.17875 5.92523 4.79375L6.40398 6.59M6.40398 6.59C13.3673 6.39486 20.3239 7.16894 27.074 8.89C26.044 11.9575 24.8202 14.9375 23.419 17.8125H9.39648M6.40398 6.59L9.39648 17.8125M9.39648 17.8125C8.40192 17.8125 7.4481 18.2076 6.74483 18.9108C6.04157 19.6141 5.64648 20.5679 5.64648 21.5625H25.334M7.52148 25.3125C7.52148 25.5611 7.42271 25.7996 7.2469 25.9754C7.07108 26.1512 6.83262 26.25 6.58398 26.25C6.33534 26.25 6.09689 26.1512 5.92107 25.9754C5.74526 25.7996 5.64648 25.5611 5.64648 25.3125C5.64648 25.0639 5.74526 24.8254 5.92107 24.6496C6.09689 24.4738 6.33534 24.375 6.58398 24.375C6.83262 24.375 7.07108 24.4738 7.2469 24.6496C7.42271 24.8254 7.52148 25.0639 7.52148 25.3125ZM23.459 25.3125C23.459 25.5611 23.3602 25.7996 23.1844 25.9754C23.0086 26.1512 22.7701 26.25 22.5215 26.25C22.2728 26.25 22.0344 26.1512 21.8586 25.9754C21.6828 25.7996 21.584 25.5611 21.584 25.3125C21.584 25.0639 21.6828 24.8254 21.8586 24.6496C22.0344 24.4738 22.2728 24.375 22.5215 24.375C22.7701 24.375 23.0086 24.4738 23.1844 24.6496C23.3602 24.8254 23.459 25.0639 23.459 25.3125Z" stroke="#313133" stroke-width="1.5" stroke-linecap="round" stroke-linejoin="round"/>
</svg>
