<svg width="86" height="12" viewBox="0 0 86 12" fill="none" xmlns="http://www.w3.org/2000/svg">
<path d="M32.4011 11.9868H40.1759L43.1296 7.98676H35.3547L32.4011 11.9868ZM0.877899 9.56291V10.4106H11.7123L12.3349 9.56291H0.877899ZM23.7786 7.98676C22.6262 7.98676 22.9839 7.50993 23.1693 7.25828C23.5402 6.75497 24.1759 5.8808 24.5468 5.39073C24.9176 4.90066 24.9176 4.60927 24.1759 4.60927H17.4209L11.9772 12H25.2355C29.6196 12 32.0567 9.01987 32.8117 7.98676H23.7786ZM65.8316 7.07285L71.0369 0H62.7984L57.5931 7.07285H65.8316ZM13.5004 7.98676H0.877899V8.83444H12.8779L13.5004 7.98676ZM28.2024 4.46358C27.8315 4.96689 27.209 5.84106 26.8382 6.34437C26.6527 6.60927 26.2951 7.07285 27.4474 7.07285H33.4872C33.4872 7.07285 34.4541 5.74834 35.2753 4.63576C36.3878 3.12583 35.368 0 31.4077 0H15.7918L13.0898 3.68212H27.8448C28.5865 3.68212 28.5733 3.97351 28.2024 4.46358ZM0.877899 11.9868H10.56L11.1825 11.1391H0.877899V11.9868ZM43.6594 11.9868H51.4342L54.3878 7.98676H46.613C46.5998 7.98676 43.6594 11.9868 43.6594 11.9868ZM73.0633 12H85.6461V11.1523H73.6859L73.0633 12ZM76.017 7.98676L75.3945 8.83444H85.6461V7.98676H76.017ZM74.2289 10.4106H85.6461V9.56291H74.8514L74.2289 10.4106ZM52.4806 0L49.5004 4.05298H46.0302L49.0104 0H41.2355L36.0302 7.07285H55.0501L60.2554 0H52.4806ZM56.9176 7.98676C56.9176 7.98676 56.3481 8.76821 56.07 9.13908C55.0898 10.4636 55.9508 12 59.1428 12H71.6329L74.5865 7.98676H56.9176Z" fill="#00BA34"/>
</svg>
