<svg width="25" height="24" viewBox="0 0 25 24" fill="none" xmlns="http://www.w3.org/2000/svg">
<path d="M19.5536 5.33029C18.2236 4.71029 16.7836 4.26029 15.2836 4.00029C15.2704 3.99987 15.2573 4.00234 15.2452 4.00752C15.2331 4.0127 15.2223 4.02048 15.2136 4.03029C15.0336 4.36029 14.8236 4.79029 14.6836 5.12029C13.0926 4.88029 11.4746 4.88029 9.88356 5.12029C9.74356 4.78029 9.53356 4.36029 9.34356 4.03029C9.33356 4.01029 9.30356 4.00029 9.27356 4.00029C7.77356 4.26029 6.34356 4.71029 5.00356 5.33029C4.99356 5.33029 4.98356 5.34029 4.97356 5.35029C2.25356 9.42029 1.50356 13.3803 1.87356 17.3003C1.87356 17.3203 1.88356 17.3403 1.90356 17.3503C3.70356 18.6703 5.43356 19.4703 7.14356 20.0003C7.17356 20.0103 7.20356 20.0003 7.21356 19.9803C7.61356 19.4303 7.97356 18.8503 8.28356 18.2403C8.30356 18.2003 8.28356 18.1603 8.24356 18.1503C7.67356 17.9303 7.13356 17.6703 6.60356 17.3703C6.56356 17.3503 6.56356 17.2903 6.59356 17.2603C6.70356 17.1803 6.81356 17.0903 6.92356 17.0103C6.94356 16.9903 6.97356 16.9903 6.99356 17.0003C10.4336 18.5703 14.1436 18.5703 17.5436 17.0003C17.5636 16.9903 17.5936 16.9903 17.6136 17.0103C17.7236 17.1003 17.8336 17.1803 17.9436 17.2703C17.9836 17.3003 17.9836 17.3603 17.9336 17.3803C17.4136 17.6903 16.8636 17.9403 16.2936 18.1603C16.2536 18.1703 16.2436 18.2203 16.2536 18.2503C16.5736 18.8603 16.9336 19.4403 17.3236 19.9903C17.3536 20.0003 17.3836 20.0103 17.4136 20.0003C19.1336 19.4703 20.8636 18.6703 22.6636 17.3503C22.6836 17.3403 22.6936 17.3203 22.6936 17.3003C23.1336 12.7703 21.9636 8.84029 19.5936 5.35029C19.5836 5.34029 19.5736 5.33029 19.5536 5.33029ZM8.80356 14.9103C7.77356 14.9103 6.91356 13.9603 6.91356 12.7903C6.91356 11.6203 7.75356 10.6703 8.80356 10.6703C9.86356 10.6703 10.7036 11.6303 10.6936 12.7903C10.6936 13.9603 9.85356 14.9103 8.80356 14.9103ZM15.7736 14.9103C14.7436 14.9103 13.8836 13.9603 13.8836 12.7903C13.8836 11.6203 14.7236 10.6703 15.7736 10.6703C16.8336 10.6703 17.6736 11.6303 17.6636 12.7903C17.6636 13.9603 16.8336 14.9103 15.7736 14.9103Z" fill="#00BA34"/>
</svg>
