<svg width="14" height="14" viewBox="0 0 14 14" fill="none" xmlns="http://www.w3.org/2000/svg">
<path d="M3.8892 4.45505C3.82686 5.12005 3.78311 6.29692 4.17576 6.79786C4.17576 6.79786 3.99092 5.50505 5.64795 3.88302C6.31514 3.23005 6.46936 2.34192 6.23639 1.67583C6.10405 1.29848 5.86233 0.986765 5.65233 0.769109C5.52983 0.64114 5.62389 0.430046 5.80217 0.437703C6.88061 0.485828 8.62842 0.785515 9.37108 2.64927C9.69701 3.46739 9.72108 4.31286 9.56576 5.17255C9.46733 5.72161 9.11733 6.94223 9.91576 7.09208C10.4856 7.19927 10.7612 6.74645 10.8848 6.42052C10.9362 6.28489 11.1145 6.25098 11.2108 6.35927C12.1733 7.45411 12.2553 8.74364 12.0562 9.8538C11.6712 11.9997 9.49795 13.5616 7.33889 13.5616C4.6417 13.5616 2.49467 12.0183 1.93795 9.22489C1.71373 8.09723 1.82748 5.86598 3.56655 4.29098C3.69561 4.17286 3.9067 4.27786 3.8892 4.45505Z" fill="url(#paint0_radial_1358_17314)"/>
<path d="M8.32461 8.46769C7.33039 7.188 7.77554 5.72784 8.01945 5.14597C8.05226 5.06941 7.96476 4.99722 7.89586 5.04425C7.4682 5.33519 6.59211 6.01987 6.18414 6.98347C5.63179 8.28612 5.67117 8.92378 5.9982 9.70253C6.19508 10.1718 5.96648 10.2713 5.85164 10.2888C5.74007 10.3063 5.63726 10.2319 5.55523 10.1542C5.31924 9.92769 5.15107 9.63983 5.06961 9.323C5.05211 9.25519 4.96351 9.23659 4.92304 9.29238C4.61679 9.71566 4.4582 10.3949 4.45054 10.875C4.42648 12.3593 5.65257 13.5624 7.1357 13.5624C9.00492 13.5624 10.3666 11.4952 9.29257 9.76706C8.98086 9.26394 8.68773 8.93472 8.32461 8.46769Z" fill="url(#paint1_radial_1358_17314)"/>
<defs>
<radialGradient id="paint0_radial_1358_17314" cx="0" cy="0" r="1" gradientUnits="userSpaceOnUse" gradientTransform="translate(6.80468 13.5956) rotate(-179.751) scale(7.72053 12.6678)">
<stop offset="0.314" stop-color="#FF9800"/>
<stop offset="0.662" stop-color="#FF6D00"/>
<stop offset="0.972" stop-color="#F44336"/>
</radialGradient>
<radialGradient id="paint1_radial_1358_17314" cx="0" cy="0" r="1" gradientUnits="userSpaceOnUse" gradientTransform="translate(7.23851 5.91251) rotate(90.5787) scale(8.07804 6.07933)">
<stop offset="0.214" stop-color="#FFF176"/>
<stop offset="0.328" stop-color="#FFF27D"/>
<stop offset="0.487" stop-color="#FFF48F"/>
<stop offset="0.672" stop-color="#FFF7AD"/>
<stop offset="0.793" stop-color="#FFF9C4"/>
<stop offset="0.822" stop-color="#FFF8BD" stop-opacity="0.804"/>
<stop offset="0.863" stop-color="#FFF6AB" stop-opacity="0.529"/>
<stop offset="0.91" stop-color="#FFF38D" stop-opacity="0.209"/>
<stop offset="0.941" stop-color="#FFF176" stop-opacity="0"/>
</radialGradient>
</defs>
</svg>
