<svg width="60" height="60" viewBox="0 0 60 60" fill="none" xmlns="http://www.w3.org/2000/svg">
<rect width="60" height="60" rx="30" fill="#00BA34" fill-opacity="0.1"/>
<path d="M21.5289 17.8125C20.9076 17.8125 20.3114 18.06 19.8726 18.5L18.2476 20.1225C17.4079 20.9607 16.9172 22.0861 16.8746 23.2717C16.832 24.4574 17.2405 25.6151 18.0179 26.5114C18.7953 27.4077 19.8836 27.9759 21.0634 28.1014C22.2432 28.2268 23.4266 27.9003 24.3751 27.1875C25.1589 27.775 26.1326 28.125 27.1876 28.125C28.2426 28.125 29.2176 27.775 30.0001 27.1875C30.7826 27.775 31.7576 28.125 32.8126 28.125C33.8676 28.125 34.8414 27.775 35.6251 27.1875C36.5736 27.9003 37.7571 28.2268 38.9368 28.1014C40.1166 27.9759 41.2049 27.4077 41.9823 26.5114C42.7597 25.6151 43.1682 24.4574 43.1256 23.2717C43.083 22.0861 42.5923 20.9607 41.7526 20.1225L40.1276 18.4988C39.6883 18.0595 39.0926 17.8127 38.4714 17.8125H21.5289Z" fill="#00BA34"/>
<path fill-rule="evenodd" clip-rule="evenodd" d="M18.75 40.3122V29.3684C20.525 30.2109 22.6 30.2097 24.375 29.3684C25.2539 29.7853 26.2147 30.001 27.1875 29.9997C28.1925 29.9997 29.1475 29.7722 30 29.3672C30.8788 29.7845 31.8396 30.0006 32.8125 29.9997C33.8175 29.9997 34.7712 29.7722 35.625 29.3672C37.4 30.2097 39.475 30.2109 41.25 29.3684V40.3122H42.1875C42.4361 40.3122 42.6746 40.411 42.8504 40.5868C43.0262 40.7626 43.125 41.001 43.125 41.2497C43.125 41.4983 43.0262 41.7368 42.8504 41.9126C42.6746 42.0884 42.4361 42.1872 42.1875 42.1872H17.8125C17.5639 42.1872 17.3254 42.0884 17.1496 41.9126C16.9738 41.7368 16.875 41.4983 16.875 41.2497C16.875 41.001 16.9738 40.7626 17.1496 40.5868C17.3254 40.411 17.5639 40.3122 17.8125 40.3122H18.75ZM22.5 32.8122C22.5 32.5635 22.5988 32.3251 22.7746 32.1493C22.9504 31.9735 23.1889 31.8747 23.4375 31.8747H27.1875C27.4361 31.8747 27.6746 31.9735 27.8504 32.1493C28.0262 32.3251 28.125 32.5635 28.125 32.8122V36.5622C28.125 36.8108 28.0262 37.0493 27.8504 37.2251C27.6746 37.4009 27.4361 37.4997 27.1875 37.4997H23.4375C23.1889 37.4997 22.9504 37.4009 22.7746 37.2251C22.5988 37.0493 22.5 36.8108 22.5 36.5622V32.8122ZM32.8125 31.8747C32.5639 31.8747 32.3254 31.9735 32.1496 32.1493C31.9738 32.3251 31.875 32.5635 31.875 32.8122V39.3747C31.875 39.8922 32.295 40.3122 32.8125 40.3122H36.5625C36.8111 40.3122 37.0496 40.2134 37.2254 40.0376C37.4012 39.8618 37.5 39.6233 37.5 39.3747V32.8122C37.5 32.5635 37.4012 32.3251 37.2254 32.1493C37.0496 31.9735 36.8111 31.8747 36.5625 31.8747H32.8125Z" fill="#00BA34"/>
</svg>
