<svg width="25" height="26" viewBox="0 0 25 26" fill="none" xmlns="http://www.w3.org/2000/svg">
<g clip-path="url(#clip0_5007_2990)">
<path d="M24.4158 13.5946C24.4158 12.5704 24.3327 11.8229 24.1528 11.0479H12.457V15.6708H19.3222C19.1838 16.8196 18.4364 18.5498 16.7754 19.7124L16.7522 19.8671L20.4502 22.7319L20.7064 22.7575C23.0593 20.5844 24.4158 17.3871 24.4158 13.5946Z" fill="#4285F4"/>
<path d="M12.4571 25.7746C15.8204 25.7746 18.644 24.6672 20.7064 22.7572L16.7755 19.7121C15.7236 20.4457 14.3118 20.9578 12.4571 20.9578C9.1629 20.9578 6.367 18.7848 5.37034 15.7812L5.22425 15.7937L1.37902 18.7695L1.32874 18.9093C3.37721 22.9786 7.58494 25.7746 12.4571 25.7746Z" fill="#34A853"/>
<path d="M5.37032 15.7813C5.10735 15.0062 4.95515 14.1756 4.95515 13.3175C4.95515 12.4593 5.10735 11.6289 5.35649 10.8538L5.34952 10.6887L1.45611 7.66504L1.32872 7.72563C0.484447 9.41428 0 11.3106 0 13.3175C0 15.3245 0.484447 17.2207 1.32872 18.9093L5.37032 15.7813Z" fill="#FBBC05"/>
<path d="M12.4571 5.67705C14.7962 5.67705 16.3741 6.68745 17.2738 7.53182L20.7894 4.09919C18.6303 2.09222 15.8204 0.860352 12.4571 0.860352C7.58494 0.860352 3.37721 3.65625 1.32874 7.72552L5.3565 10.8537C6.367 7.85014 9.1629 5.67705 12.4571 5.67705Z" fill="#EB4335"/>
</g>
<defs>
<clipPath id="clip0_5007_2990">
<rect width="24.4275" height="25" fill="white" transform="translate(0 0.860352)"/>
</clipPath>
</defs>
</svg>
