<svg width="16" height="17" viewBox="0 0 16 17" fill="none" xmlns="http://www.w3.org/2000/svg">
<path d="M6.88 9.80035L5.14 8.06035C4.99333 7.91368 4.81333 7.84035 4.6 7.84035C4.38667 7.84035 4.2 7.92035 4.04 8.08035C3.89333 8.22702 3.82 8.41368 3.82 8.64035C3.82 8.86702 3.89333 9.05368 4.04 9.20035L6.32 11.4804C6.46667 11.627 6.65333 11.7003 6.88 11.7003C7.10667 11.7003 7.29333 11.627 7.44 11.4804L11.98 6.94035C12.1267 6.79368 12.2 6.61368 12.2 6.40035C12.2 6.18702 12.12 6.00035 11.96 5.84035C11.8133 5.69369 11.6267 5.62035 11.4 5.62035C11.1733 5.62035 10.9867 5.69369 10.84 5.84035L6.88 9.80035ZM8 16.3604C6.89333 16.3604 5.85333 16.1502 4.88 15.73C3.90667 15.3097 3.06 14.7398 2.34 14.0204C1.62 13.3004 1.05013 12.4537 0.6304 11.4804C0.210667 10.507 0.000533333 9.46702 0 8.36035C0 7.25368 0.210133 6.21369 0.6304 5.24035C1.05067 4.26702 1.62053 3.42035 2.34 2.70035C3.06 1.98035 3.90667 1.41048 4.88 0.990752C5.85333 0.571018 6.89333 0.360885 8 0.360352C9.10667 0.360352 10.1467 0.570485 11.12 0.990752C12.0933 1.41102 12.94 1.98088 13.66 2.70035C14.38 3.42035 14.9501 4.26702 15.3704 5.24035C15.7907 6.21369 16.0005 7.25368 16 8.36035C16 9.46702 15.7899 10.507 15.3696 11.4804C14.9493 12.4537 14.3795 13.3004 13.66 14.0204C12.94 14.7404 12.0933 15.3105 11.12 15.7308C10.1467 16.151 9.10667 16.3609 8 16.3604Z" fill="#808080"/>
</svg>
