<svg width="31" height="30" viewBox="0 0 31 30" fill="none" xmlns="http://www.w3.org/2000/svg">
<path d="M12.7036 9.39875C14.1673 8.1175 16.5423 8.1175 18.0061 9.39875C19.4711 10.68 19.4711 12.7575 18.0061 14.0387C17.7523 14.2625 17.4686 14.4463 17.1686 14.5913C16.2373 15.0425 15.3561 15.84 15.3561 16.875V17.8125M26.6048 15C26.6048 16.4774 26.3138 17.9403 25.7485 19.3052C25.1831 20.6701 24.3544 21.9103 23.3098 22.955C22.2651 23.9996 21.0249 24.8283 19.66 25.3936C18.2951 25.959 16.8322 26.25 15.3548 26.25C13.8775 26.25 12.4146 25.959 11.0496 25.3936C9.68473 24.8283 8.44454 23.9996 7.39988 22.955C6.35522 21.9103 5.52655 20.6701 4.96118 19.3052C4.39582 17.9403 4.10483 16.4774 4.10483 15C4.10483 12.0163 5.29009 9.15483 7.39988 7.04505C9.50966 4.93526 12.3711 3.75 15.3548 3.75C18.3385 3.75 21.2 4.93526 23.3098 7.04505C25.4196 9.15483 26.6048 12.0163 26.6048 15ZM15.3548 21.5625H15.3648V21.5725H15.3548V21.5625Z" stroke="#313133" stroke-width="1.5" stroke-linecap="round" stroke-linejoin="round"/>
</svg>
