<svg width="101" height="100" viewBox="0 0 101 100" fill="none" xmlns="http://www.w3.org/2000/svg">
<g clip-path="url(#clip0_119_4751)">
<rect x="0.5" width="100" height="100" rx="50" fill="#00BA34" fill-opacity="0.1"/>
<g clip-path="url(#clip1_119_4751)">
<path d="M76.153 50.3301C76.153 49.4291 75.626 48.6471 74.878 48.2731C75.473 47.8651 75.881 47.1681 75.881 46.3691C75.881 45.1961 75.014 44.2441 73.892 44.0911C74.334 43.6661 74.623 43.0711 74.623 42.4081C74.623 41.2861 73.807 40.3511 72.753 40.1471C73.025 39.7731 73.195 39.2971 73.195 38.7871C73.195 37.5121 72.158 36.4751 70.883 36.4751C70.815 36.4751 70.747 36.4751 70.679 36.4921C70.849 36.1691 70.951 35.7951 70.951 35.4041C70.951 34.1631 69.965 33.1431 68.741 33.1091C68.758 32.9731 68.775 32.8541 68.775 32.7181C68.775 31.4431 67.738 30.4061 66.463 30.4061C66.242 30.4061 66.038 30.4401 65.834 30.4911C65.732 29.3181 64.746 28.4001 63.539 28.4001C63.216 28.4001 62.91 28.4681 62.638 28.5871C62.349 27.6521 61.465 26.9721 60.445 26.9721C59.952 26.9721 59.51 27.1251 59.136 27.3801C58.898 26.3601 57.98 25.5951 56.892 25.5951C56.161 25.5951 55.498 25.9351 55.073 26.4791C54.733 25.6291 53.9 25.0171 52.931 25.0171C52.234 25.0171 51.605 25.3231 51.18 25.8161C50.755 25.3571 50.16 25.0681 49.48 25.0681C48.681 25.0681 47.967 25.4761 47.559 26.1051C47.151 25.7141 46.59 25.4761 45.978 25.4761C44.975 25.4761 44.108 26.1221 43.802 27.0231C43.411 26.7341 42.935 26.5641 42.425 26.5641C41.49 26.5641 40.674 27.1251 40.317 27.9411C40.096 27.8731 39.858 27.8221 39.62 27.8221C38.345 27.8221 37.325 28.8421 37.308 30.1171C37.036 30.0151 36.764 29.9471 36.458 29.9471C35.2 29.9471 34.18 30.9501 34.163 32.1911C32.939 32.2591 31.987 33.2621 31.987 34.4861C31.987 34.6561 32.004 34.8261 32.038 34.9961C30.814 35.0641 29.862 36.0671 29.862 37.2911C29.862 37.7331 29.981 38.1411 30.202 38.4811H30.168C28.893 38.4811 27.856 39.5181 27.856 40.7931C27.856 41.4051 28.094 41.9491 28.485 42.3741C27.533 42.6461 26.819 43.5301 26.819 44.5841C26.819 45.2811 27.142 45.9271 27.635 46.3351C26.853 46.7091 26.309 47.4911 26.309 48.4261C26.309 49.3611 26.87 50.1601 27.669 50.5171C27.091 50.9421 26.717 51.6051 26.717 52.3871C26.717 53.3561 27.312 54.1721 28.145 54.5121C27.856 54.9031 27.686 55.3621 27.686 55.8891C27.686 57.0451 28.536 57.9971 29.624 58.1671C29.267 58.5751 29.029 59.1191 29.029 59.6971C29.029 60.9551 30.049 61.9751 31.307 62.0091C31.171 62.3151 31.086 62.6381 31.086 62.9951C31.086 64.2701 32.123 65.3071 33.398 65.3071C33.5 65.3071 33.585 65.3071 33.67 65.2901C33.636 65.4601 33.602 65.6471 33.602 65.8171C33.602 67.0921 34.639 68.1291 35.914 68.1291C36.509 68.1291 37.053 67.9081 37.461 67.5341C41.235 70.3731 45.927 72.0391 51.01 72.0391C55.209 72.0391 59.153 70.8831 62.519 68.8941C62.893 69.1491 63.335 69.2851 63.811 69.2851C64.831 69.2851 65.681 68.6221 65.987 67.7211C66.174 67.7721 66.361 67.7891 66.565 67.7891C67.84 67.7891 68.877 66.7521 68.877 65.4771C68.877 65.3751 68.877 65.2901 68.86 65.1881C69.03 65.2221 69.2 65.2561 69.387 65.2561C70.662 65.2561 71.699 64.2191 71.699 62.9441C71.699 62.5701 71.614 62.2131 71.444 61.9071C72.617 61.7881 73.535 60.8191 73.535 59.6121C73.535 59.3231 73.484 59.0681 73.382 58.8131C74.215 58.4561 74.793 57.6401 74.793 56.6881C74.793 56.1951 74.64 55.7361 74.368 55.3621C75.133 54.9881 75.643 54.2061 75.643 53.3051C75.643 52.8801 75.524 52.4891 75.32 52.1321C75.796 51.7411 76.153 51.0781 76.153 50.3301Z" fill="#00BA34"/>
<path d="M37.614 53.5943L35.948 53.1523C34.163 52.8973 33.024 54.2743 33.415 56.5863C33.755 58.6773 34.418 60.4623 35.319 62.9273C36.339 65.7153 38.396 65.1543 38.396 65.1543L37.614 53.5943Z" fill="url(#paint0_linear_119_4751)"/>
<path d="M63.7089 53.5943L65.3749 53.1523C67.1429 52.8973 68.2989 54.2743 67.9079 56.5863C67.5679 58.6773 66.9049 60.4623 66.0039 62.9273C64.9839 65.7153 62.9269 65.1543 62.9269 65.1543L63.7089 53.5943Z" fill="url(#paint1_linear_119_4751)"/>
<path d="M90.858 115.236L88.155 98.644C87.203 93.918 83.31 90.178 78.346 89.26L62.451 84.279C60.87 84.041 59.629 82.409 59.612 80.709L59.221 72.855H42L41.592 81.032C41.507 82.63 40.317 83.956 38.736 84.211L22.892 89.77C17.928 90.688 14.035 94.411 13.083 99.154L10.227 115.134C20.342 115.117 80.692 115.236 90.858 115.236Z" fill="url(#paint2_linear_119_4751)"/>
<path d="M50.721 41.1499L48.919 41.1669C42.34 41.2009 37.019 46.5389 37.019 53.1179V67.3129C37.019 69.0809 37.699 70.7809 38.923 72.0559L43.139 76.4419C44.363 77.6999 46.046 78.4309 47.797 78.4309H53.764C55.515 78.4309 57.215 77.7169 58.422 76.4419L62.638 72.0559C63.862 70.7809 64.542 69.0809 64.542 67.3129V53.1179C64.542 46.5389 59.221 41.1839 52.642 41.1669L50.721 41.1499Z" fill="url(#paint3_linear_119_4751)"/>
<path d="M78.958 89.4302L62.604 84.2962C61.499 86.9312 58.592 90.7052 51.095 90.7052C43.292 90.7052 40.81 86.4042 40.028 83.7012C39.637 83.9562 39.212 84.1262 38.736 84.2112L22.042 89.5322C17.078 90.4502 13.185 94.1732 12.233 98.9162L10.244 115.151H60.462C74.538 115.151 86.608 115.236 90.739 115.236L88.767 98.8142C87.815 94.0712 83.922 90.3482 78.958 89.4302Z" fill="white"/>
<path d="M91.181 119.418L89.685 97.8792C88.733 93.1532 84.84 89.4132 79.876 88.4952L60.156 82.6812C59.442 83.5992 52.999 132.015 52.982 132.202" fill="url(#paint4_linear_119_4751)"/>
<path d="M45.23 133.494C45.23 133.494 41.422 82.8002 40.946 82.8682C40.946 82.8682 26.666 87.9342 21.77 89.1922C16.891 90.4502 12.913 93.8502 11.978 98.5762L9.81897 119.248" fill="url(#paint5_linear_119_4751)"/>
<path d="M52.931 76.7819H48.766C48.409 76.7819 48.171 76.3909 48.358 76.0679L48.97 75.0139C49.055 74.8609 49.208 74.7759 49.378 74.7759H52.336C52.506 74.7759 52.659 74.8609 52.744 75.0139L53.356 76.0679C53.526 76.3739 53.305 76.7819 52.931 76.7819Z" fill="#231F20"/>
<path d="M41.0649 82.8003C41.0649 82.8003 41.5409 87.5943 41.6769 89.1753C41.9829 92.5243 42.8159 102.571 42.8159 102.571L40.5379 94.1563L36.4919 98.8823L37.8179 83.9903L41.0649 82.8003Z" fill="url(#paint6_linear_119_4751)"/>
<path d="M60.156 82.6133C60.156 82.6133 59.34 85.1803 58.949 88.7503C58.558 92.2353 57.011 102.656 57.011 102.656L59.663 94.7853L63.488 99.2733L63.522 83.6673L60.156 82.6133Z" fill="url(#paint7_linear_119_4751)"/>
<path d="M63.692 51.0099C62.315 50.6019 57.147 49.4969 52.931 52.3869C52.931 52.3869 51.656 53.1349 51.01 53.1349C50.347 53.1349 49.123 52.3869 49.123 52.3869C45.043 49.4969 39.824 50.6019 38.43 51.0099C37.886 51.1799 36.934 51.3669 36.934 51.3669L37.121 53.1349C37.121 53.1349 37.529 53.2709 37.716 53.3049L37.699 53.3899C37.682 53.5429 37.682 57.3679 39.654 59.5609C40.538 60.5299 41.711 61.0399 43.139 61.0399C46.08 61.0399 47.542 59.3739 48.256 57.9629C49.021 56.4669 49.293 54.9709 49.293 54.9199H49.633C49.854 54.2739 52.081 54.2739 52.268 54.9199H52.608C52.608 54.9879 52.812 56.4669 53.509 57.9629C54.155 59.3569 55.549 61.0399 58.49 61.0399C59.935 61.0399 61.125 60.5469 62.043 59.5609C64.117 57.3679 64.304 53.5599 64.287 53.3899V53.3049C64.593 53.2369 65.409 52.8629 65.409 52.8629L65.698 51.4519C65.698 51.4689 64.44 51.2309 63.692 51.0099ZM48.936 54.9199C48.936 54.9369 48.664 56.3649 47.933 57.7929C46.964 59.6799 45.366 60.6319 43.173 60.6319C41.847 60.6319 40.776 60.1729 39.96 59.2889C38.107 57.2319 38.107 53.4069 38.124 53.3729C38.192 53.0839 38.753 51.1459 42.85 51.1459C49.055 51.1459 48.936 54.8179 48.936 54.9199ZM61.771 59.2889C60.921 60.1729 59.833 60.6319 58.507 60.6319C56.314 60.6319 54.75 59.6799 53.883 57.7929C53.22 56.3649 53.016 54.9369 53.016 54.9199C53.016 54.8179 53.067 51.1459 59.289 51.1459C63.369 51.1459 63.845 53.1009 63.896 53.3729C63.896 53.4239 63.726 57.2319 61.771 59.2889Z" fill="url(#paint8_linear_119_4751)"/>
<path d="M51.299 32.3442C37.427 32.3442 35.353 42.8672 35.438 45.6212C35.523 48.3752 37.342 60.8702 37.342 60.8702C37.342 60.8702 36.968 57.7252 37.393 54.7332C37.801 51.8942 38.991 48.9362 40.181 46.8622C42.646 42.5952 46.675 45.5362 48.664 47.0492C50.653 48.5622 51.282 48.1882 51.282 48.1882C51.282 48.1882 51.911 48.5622 53.9 47.0492C55.889 45.5362 59.918 42.5952 62.383 46.8622C63.726 49.1742 64.797 52.9142 64.627 55.8552C64.491 58.2012 64.134 60.2072 64.134 60.2072C64.134 60.2072 67.058 48.3752 67.126 45.6212C67.228 42.8672 65.171 32.3442 51.299 32.3442Z" fill="#00BA34"/>
</g>
</g>
<defs>
<linearGradient id="paint0_linear_119_4751" x1="34.8367" y1="59.2686" x2="32.5985" y2="59.3833" gradientUnits="userSpaceOnUse">
<stop stop-color="#FEC797"/>
<stop offset="1" stop-color="#FFD9A9"/>
</linearGradient>
<linearGradient id="paint1_linear_119_4751" x1="65.488" y1="59.4095" x2="68.7018" y2="60.2702" gradientUnits="userSpaceOnUse">
<stop stop-color="#FEC797"/>
<stop offset="1" stop-color="#FFD9A9"/>
</linearGradient>
<linearGradient id="paint2_linear_119_4751" x1="50.5495" y1="70.9095" x2="50.5495" y2="94.0084" gradientUnits="userSpaceOnUse">
<stop stop-color="#FEC797"/>
<stop offset="1" stop-color="#FFD9A9"/>
</linearGradient>
<linearGradient id="paint3_linear_119_4751" x1="50.7747" y1="49.9046" x2="50.7747" y2="67.1252" gradientUnits="userSpaceOnUse">
<stop stop-color="#FEC797"/>
<stop offset="1" stop-color="#FFD9A9"/>
</linearGradient>
<linearGradient id="paint4_linear_119_4751" x1="72.0789" y1="68.8437" x2="72.0789" y2="121.535" gradientUnits="userSpaceOnUse">
<stop offset="0.005" stop-color="#000014"/>
<stop offset="1" stop-color="#0B50A5"/>
</linearGradient>
<linearGradient id="paint5_linear_119_4751" x1="27.526" y1="74.3533" x2="27.526" y2="116.97" gradientUnits="userSpaceOnUse">
<stop offset="0.005" stop-color="#000014"/>
<stop offset="1" stop-color="#0B50A5"/>
</linearGradient>
<linearGradient id="paint6_linear_119_4751" x1="42.9851" y1="92.6877" x2="39.1671" y2="92.6877" gradientUnits="userSpaceOnUse">
<stop offset="0.005" stop-color="#000014"/>
<stop offset="1" stop-color="#0B50A5"/>
</linearGradient>
<linearGradient id="paint7_linear_119_4751" x1="56.545" y1="92.5544" x2="61.6671" y2="92.7696" gradientUnits="userSpaceOnUse">
<stop offset="0.005" stop-color="#000014"/>
<stop offset="1" stop-color="#0B50A5"/>
</linearGradient>
<linearGradient id="paint8_linear_119_4751" x1="51.3219" y1="49.0549" x2="51.3219" y2="70.3057" gradientUnits="userSpaceOnUse">
<stop offset="0.005" stop-color="#000014"/>
<stop offset="1" stop-color="#0B50A5"/>
</linearGradient>
<clipPath id="clip0_119_4751">
<rect x="0.5" width="100" height="100" rx="50" fill="white"/>
</clipPath>
<clipPath id="clip1_119_4751">
<rect width="85" height="85" fill="white" transform="translate(8 25)"/>
</clipPath>
</defs>
</svg>
