<svg width="25" height="24" viewBox="0 0 25 24" fill="none" xmlns="http://www.w3.org/2000/svg">
<path d="M12.7164 8.75C11.8544 8.75 11.0278 9.09241 10.4183 9.7019C9.80881 10.3114 9.4664 11.138 9.4664 12C9.4664 12.862 9.80881 13.6886 10.4183 14.2981C11.0278 14.9076 11.8544 15.25 12.7164 15.25C13.5784 15.25 14.405 14.9076 15.0145 14.2981C15.624 13.6886 15.9664 12.862 15.9664 12C15.9664 11.138 15.624 10.3114 15.0145 9.7019C14.405 9.09241 13.5784 8.75 12.7164 8.75Z" fill="#00BA34"/>
<path fill-rule="evenodd" clip-rule="evenodd" d="M7.48637 3.08194C10.9624 2.69664 14.4704 2.69664 17.9464 3.08194C19.8454 3.29394 21.3764 4.78894 21.5994 6.69494C22.0116 10.2196 22.0116 13.7803 21.5994 17.3049C21.3764 19.2109 19.8454 20.7059 17.9474 20.9189C14.471 21.3043 10.9627 21.3043 7.48637 20.9189C5.58737 20.7059 4.05637 19.2109 3.83337 17.3059C3.4211 13.781 3.4211 10.2199 3.83337 6.69494C4.05637 4.78894 5.58737 3.29394 7.48637 3.08194ZM17.7164 5.99994C17.4512 5.99994 17.1968 6.1053 17.0093 6.29284C16.8217 6.48037 16.7164 6.73473 16.7164 6.99994C16.7164 7.26516 16.8217 7.51951 17.0093 7.70705C17.1968 7.89459 17.4512 7.99994 17.7164 7.99994C17.9816 7.99994 18.2359 7.89459 18.4235 7.70705C18.611 7.51951 18.7164 7.26516 18.7164 6.99994C18.7164 6.73473 18.611 6.48037 18.4235 6.29284C18.2359 6.1053 17.9816 5.99994 17.7164 5.99994ZM7.96637 11.9999C7.96637 10.7402 8.46682 9.53198 9.35762 8.64119C10.2484 7.75039 11.4566 7.24994 12.7164 7.24994C13.9762 7.24994 15.1843 7.75039 16.0751 8.64119C16.9659 9.53198 17.4664 10.7402 17.4664 11.9999C17.4664 13.2597 16.9659 14.4679 16.0751 15.3587C15.1843 16.2495 13.9762 16.7499 12.7164 16.7499C11.4566 16.7499 10.2484 16.2495 9.35762 15.3587C8.46682 14.4679 7.96637 13.2597 7.96637 11.9999Z" fill="#00BA34"/>
</svg>
