<svg width="59" height="16" viewBox="0 0 59 16" fill="none" xmlns="http://www.w3.org/2000/svg">
<g clip-path="url(#clip0_1615_260)">
<path fill-rule="evenodd" clip-rule="evenodd" d="M19.7148 8.35802L19.9127 7.23157C19.9127 7.23157 18.3891 6.73675 17.149 7.65443V12.1606H18.4659V8.49954C18.9906 8.07669 19.7148 8.35802 19.7148 8.35802Z" fill="#00BA34"/>
<mask id="mask0_1615_260" style="mask-type:luminance" maskUnits="userSpaceOnUse" x="17" y="7" width="3" height="6">
<path d="M17.149 7.65443C17.7456 7.213 18.408 7.09839 18.9346 7.09848C19.5025 7.09848 19.9127 7.23166 19.9127 7.23166L19.7148 8.35811C19.7148 8.35811 18.9906 8.07677 18.4658 8.49954V12.1606H17.149V7.65443Z" fill="white"/>
</mask>
<g mask="url(#mask0_1615_260)">
<path fill-rule="evenodd" clip-rule="evenodd" d="M-63.0095 26.127L122.431 26.127L122.431 -236.581H-63.0095L-63.0095 26.127Z" fill="#00BA34"/>
</g>
<mask id="mask1_1615_260" style="mask-type:luminance" maskUnits="userSpaceOnUse" x="17" y="7" width="3" height="6">
<path d="M17.149 7.65443C17.7456 7.213 18.4079 7.09848 18.9346 7.09848C19.5025 7.09848 19.9127 7.23166 19.9127 7.23166L19.7148 8.35811C19.7148 8.35811 18.9906 8.07677 18.4658 8.49954V12.1606H17.149V7.65443Z" fill="white"/>
</mask>
<g mask="url(#mask1_1615_260)">
<path fill-rule="evenodd" clip-rule="evenodd" d="M14.9414 14.3684H22.1203V4.8909H14.9414V14.3684Z" fill="#00BA34"/>
</g>
<path fill-rule="evenodd" clip-rule="evenodd" d="M8.36234 5.94696L9.67854 5.69899V7.16454H10.981V8.33656H9.67854V10.0844C9.67854 10.3822 9.72669 10.6185 9.82514 10.7933C9.92246 10.9708 10.1176 11.0587 10.4108 11.0587C10.5541 11.0587 10.698 11.045 10.8499 11.0158C10.9974 10.9862 11.135 10.9481 11.2588 10.8982L11.445 11.996C11.2857 12.0644 11.1096 12.1237 10.9155 12.174C10.7207 12.2238 10.4816 12.2498 10.1991 12.2498C9.83993 12.2498 9.54312 12.1974 9.3071 12.0935C9.07228 11.9897 8.88347 11.8439 8.74271 11.6579C8.60197 11.4736 8.503 11.2474 8.44745 10.9825C8.39088 10.7181 8.36234 10.4261 8.36234 10.104V5.94696Z" fill="#00BA34"/>
<mask id="mask2_1615_260" style="mask-type:luminance" maskUnits="userSpaceOnUse" x="8" y="5" width="4" height="8">
<path d="M8.3624 5.94696L9.6786 5.69899V7.16454H10.981V8.33656H9.6786V10.0844C9.6786 10.3822 9.72675 10.6185 9.82511 10.7933C9.92244 10.9709 10.1176 11.0587 10.4107 11.0587C10.5541 11.0587 10.6979 11.045 10.8498 11.0158C10.9974 10.9862 11.135 10.9481 11.2589 10.8983L11.445 11.996C11.2858 12.0645 11.1096 12.1238 10.9154 12.1741C10.7207 12.2239 10.4816 12.2498 10.1991 12.2498C9.83982 12.2498 9.54309 12.1974 9.30716 12.0935C9.07225 11.9897 8.88336 11.8439 8.74269 11.658C8.60194 11.4736 8.50306 11.2474 8.44751 10.9825C8.39085 10.7181 8.3624 10.4262 8.3624 10.104V5.94696Z" fill="white"/>
</mask>
<g mask="url(#mask2_1615_260)">
<path fill-rule="evenodd" clip-rule="evenodd" d="M-63.0095 26.1272L122.431 26.1272L122.431 -236.58H-63.0095L-63.0095 26.1272Z" fill="#00BA34"/>
</g>
<mask id="mask3_1615_260" style="mask-type:luminance" maskUnits="userSpaceOnUse" x="8" y="5" width="4" height="8">
<path d="M8.3624 5.94696L9.6786 5.69899V7.16454H10.981V8.33656H9.6786V10.0844C9.6786 10.3822 9.72675 10.6185 9.82511 10.7933C9.92244 10.9709 10.1176 11.0587 10.4107 11.0587C10.5541 11.0587 10.6979 11.045 10.8498 11.0158C10.9974 10.9862 11.135 10.9481 11.2589 10.8983L11.445 11.996C11.2858 12.0645 11.1096 12.1238 10.9154 12.1741C10.7207 12.2239 10.4816 12.2498 10.1991 12.2498C9.83982 12.2498 9.54309 12.1974 9.30716 12.0935C9.07225 11.9897 8.88336 11.8439 8.74269 11.658C8.60194 11.4736 8.50306 11.2474 8.44751 10.9825C8.39085 10.7181 8.3624 10.4262 8.3624 10.104V5.94696Z" fill="white"/>
</mask>
<g mask="url(#mask3_1615_260)">
<path fill-rule="evenodd" clip-rule="evenodd" d="M6.15466 14.4575H13.6526V3.49141H6.15466L6.15466 14.4575Z" fill="#00BA34"/>
</g>
<path fill-rule="evenodd" clip-rule="evenodd" d="M21.8622 11.1514C22.103 11.1514 22.2733 11.1249 22.3744 11.0751C22.4749 11.0248 22.5235 10.9263 22.5235 10.7821C22.5235 10.6682 22.4601 10.5692 22.3299 10.4849C22.1998 10.3991 22.004 10.3037 21.7385 10.1951C21.5327 10.113 21.3454 10.0283 21.1766 9.94081C21.01 9.85183 20.8672 9.74796 20.7492 9.62449C20.6317 9.50162 20.5407 9.35425 20.4751 9.18263C20.4095 9.01411 20.3784 8.81016 20.3784 8.56958C20.3784 8.10382 20.5407 7.73453 20.864 7.46377C21.1877 7.19413 21.6311 7.05639 22.1971 7.05639C22.4802 7.05639 22.751 7.08339 23.0103 7.13798C23.269 7.19096 23.4759 7.2514 23.6276 7.31227L23.3986 8.40897C23.2452 8.35231 23.0785 8.30253 22.8992 8.2591C22.7198 8.21465 22.5178 8.19127 22.2945 8.19127C21.8824 8.19127 21.676 8.31525 21.676 8.56056C21.676 8.61722 21.685 8.6676 21.703 8.71154C21.721 8.75608 21.756 8.79847 21.8078 8.83922C21.8622 8.87955 21.9332 8.92503 22.0252 8.97172C22.1167 9.02099 22.2331 9.0718 22.3744 9.12958C22.6616 9.24402 22.9002 9.35528 23.0886 9.46766C23.2774 9.57996 23.4255 9.69817 23.5351 9.82947C23.644 9.95775 23.7213 10.0998 23.7647 10.2576C23.8081 10.415 23.8308 10.5967 23.8308 10.8039C23.8308 11.295 23.6583 11.6664 23.315 11.9175C22.97 12.1677 22.4822 12.2937 21.8522 12.2937C21.4406 12.2937 21.0978 12.2572 20.8243 12.1804C20.5497 12.1057 20.3603 12.0411 20.2545 11.9912L20.4751 10.8478C20.6979 10.9422 20.9296 11.0152 21.1635 11.0704C21.4004 11.1244 21.6311 11.1514 21.8622 11.1514Z" fill="#00BA34"/>
<mask id="mask4_1615_260" style="mask-type:luminance" maskUnits="userSpaceOnUse" x="20" y="7" width="4" height="6">
<path d="M20.8639 7.46386C21.1877 7.19413 21.6311 7.05639 22.1971 7.05639C22.4802 7.05639 22.7511 7.08339 23.0103 7.13798C23.2689 7.19096 23.4758 7.25131 23.6276 7.31227L23.3986 8.40897C23.2451 8.35231 23.0786 8.30253 22.8991 8.2591C22.7198 8.21456 22.5177 8.19135 22.2945 8.19135C21.8823 8.19135 21.676 8.31516 21.676 8.56056C21.676 8.61722 21.685 8.6676 21.7029 8.71154C21.721 8.75607 21.756 8.79847 21.8078 8.83922C21.8622 8.87955 21.9332 8.92503 22.0252 8.97172C22.1167 9.0209 22.233 9.07189 22.3744 9.12958C22.6616 9.24402 22.9002 9.35528 23.0885 9.46766C23.2774 9.57995 23.4256 9.69809 23.5351 9.82947C23.6441 9.95775 23.7213 10.0997 23.7647 10.2576C23.8081 10.415 23.8307 10.5967 23.8307 10.8039C23.8307 11.295 23.6582 11.6665 23.315 11.9175C22.97 12.1677 22.4823 12.2937 21.8522 12.2937C21.4406 12.2937 21.0978 12.2572 20.8243 12.1804C20.5497 12.1057 20.3603 12.0411 20.2545 11.9912L20.4751 10.8478C20.6979 10.9422 20.9295 11.0152 21.1634 11.0704C21.4004 11.1244 21.6311 11.1514 21.8622 11.1514C22.1029 11.1514 22.2733 11.125 22.3744 11.0751C22.4749 11.0248 22.5235 10.9263 22.5235 10.7821C22.5235 10.6682 22.4601 10.5692 22.3299 10.4849C22.1997 10.3991 22.004 10.3037 21.7384 10.1951C21.5326 10.113 21.3454 10.0283 21.1766 9.94081C21.01 9.85183 20.8671 9.74796 20.7492 9.62449C20.6317 9.50154 20.5407 9.35425 20.4751 9.18263C20.4095 9.01402 20.3783 8.81016 20.3783 8.56958C20.3783 8.1039 20.5407 7.73461 20.8639 7.46386Z" fill="white"/>
</mask>
<g mask="url(#mask4_1615_260)">
<path fill-rule="evenodd" clip-rule="evenodd" d="M-63.0095 26.127L122.431 26.127L122.431 -236.581H-63.0095L-63.0095 26.127Z" fill="#00BA34"/>
</g>
<mask id="mask5_1615_260" style="mask-type:luminance" maskUnits="userSpaceOnUse" x="20" y="7" width="4" height="6">
<path d="M20.8639 7.46386C21.1877 7.19413 21.6311 7.05639 22.1971 7.05639C22.4802 7.05639 22.7511 7.08339 23.0103 7.13798C23.2689 7.19096 23.4758 7.25131 23.6276 7.31227L23.3986 8.40897C23.2451 8.35231 23.0786 8.30253 22.8991 8.2591C22.7198 8.21456 22.5177 8.19135 22.2945 8.19135C21.8823 8.19135 21.676 8.31516 21.676 8.56056C21.676 8.61722 21.685 8.6676 21.7029 8.71154C21.721 8.75607 21.756 8.79847 21.8078 8.83922C21.8622 8.87955 21.9332 8.92503 22.0252 8.97172C22.1167 9.0209 22.233 9.07189 22.3744 9.12958C22.6616 9.24402 22.9002 9.35528 23.0885 9.46766C23.2774 9.57995 23.4256 9.69809 23.5351 9.82947C23.6441 9.95775 23.7213 10.0997 23.7647 10.2576C23.8081 10.415 23.8307 10.5967 23.8307 10.8039C23.8307 11.295 23.6582 11.6665 23.315 11.9175C22.97 12.1677 22.4823 12.2937 21.8522 12.2937C21.4406 12.2937 21.0978 12.2572 20.8243 12.1804C20.5497 12.1057 20.3603 12.0411 20.2545 11.9912L20.4751 10.8478C20.6979 10.9422 20.9295 11.0152 21.1634 11.0704C21.4004 11.1244 21.6311 11.1514 21.8622 11.1514C22.1029 11.1514 22.2733 11.125 22.3744 11.0751C22.4749 11.0248 22.5235 10.9263 22.5235 10.7821C22.5235 10.6682 22.4601 10.5692 22.3299 10.4849C22.1997 10.3991 22.004 10.3037 21.7384 10.1951C21.5326 10.113 21.3454 10.0283 21.1766 9.94081C21.01 9.85183 20.8671 9.74796 20.7492 9.62449C20.6317 9.50154 20.5407 9.35425 20.4751 9.18263C20.4095 9.01402 20.3783 8.81016 20.3783 8.56958C20.3783 8.1039 20.5407 7.73461 20.8639 7.46386Z" fill="white"/>
</mask>
<g mask="url(#mask5_1615_260)">
<path fill-rule="evenodd" clip-rule="evenodd" d="M18.0469 14.5015H26.0385V4.84882H18.0469V14.5015Z" fill="#00BA34"/>
</g>
<path fill-rule="evenodd" clip-rule="evenodd" d="M27.8875 9.30708C27.7695 9.78608 27.6452 10.2629 27.5124 10.7345C27.3801 11.2076 27.2394 11.6834 27.094 12.1624H26.0692C25.9629 11.8974 25.8471 11.5827 25.7232 11.2177C25.5983 10.851 25.4709 10.4531 25.337 10.0203C25.2047 9.58892 25.0694 9.13227 24.9307 8.64905C24.7916 8.16799 24.6566 7.68159 24.5276 7.18935H25.9147C25.9607 7.41557 26.0131 7.66413 26.0697 7.93163C26.1258 8.19971 26.1851 8.4758 26.247 8.7598C26.3089 9.04277 26.375 9.32719 26.4427 9.61437C26.5109 9.90154 26.5808 10.1765 26.6516 10.441C26.7284 10.1639 26.8035 9.88092 26.877 9.59107C26.9495 9.3008 27.021 9.01568 27.0892 8.73546C27.1564 8.45568 27.2225 8.18389 27.2828 7.92216C27.3442 7.66087 27.3987 7.41557 27.4468 7.18935H28.3996C28.4483 7.41557 28.4995 7.66087 28.5593 7.92216C28.6175 8.18389 28.6795 8.45568 28.7451 8.73546C28.8085 9.01568 28.8778 9.3008 28.9471 9.59107C29.0185 9.88092 29.0916 10.1639 29.1672 10.441C29.2386 10.1765 29.3095 9.90154 29.3809 9.61437C29.4524 9.32719 29.5195 9.04277 29.5809 8.7598C29.6423 8.4758 29.7015 8.19971 29.7587 7.93163C29.8153 7.66413 29.8666 7.41557 29.9136 7.18935H31.2828C31.1527 7.68159 31.0189 8.16799 30.8797 8.64905C30.7395 9.13227 30.6056 9.58892 30.4718 10.0203C30.34 10.4531 30.2099 10.851 30.0835 11.2177C29.956 11.5827 29.8385 11.8974 29.7339 12.1624H28.7091C28.5609 11.6834 28.4171 11.2076 28.2753 10.7345C28.134 10.2629 28.006 9.78608 27.8875 9.30708Z" fill="#00BA34"/>
<mask id="mask6_1615_260" style="mask-type:luminance" maskUnits="userSpaceOnUse" x="24" y="7" width="8" height="6">
<path d="M29.9137 7.18935H31.2829C31.1528 7.68159 31.0189 8.16799 30.8797 8.64897C30.7395 9.13227 30.6057 9.589 30.4718 10.0203C30.3401 10.4531 30.21 10.851 30.0834 11.2177C29.956 11.5827 29.8385 11.8974 29.7338 12.1624H28.7091C28.5609 11.6834 28.4171 11.2075 28.2753 10.7344C28.134 10.2629 28.006 9.78608 27.8875 9.30708C27.7695 9.78608 27.6451 10.2629 27.5125 10.7344C27.3801 11.2075 27.2394 11.6834 27.0939 12.1624H26.0692C25.9628 11.8974 25.847 11.5827 25.7232 11.2177C25.5983 10.851 25.4708 10.4531 25.337 10.0203C25.2047 9.589 25.0693 9.13227 24.9307 8.64897C24.7916 8.16799 24.6567 7.68159 24.5276 7.18935H25.9147C25.9608 7.41557 26.0131 7.66405 26.0697 7.93163C26.1258 8.19971 26.185 8.4758 26.247 8.75971C26.3088 9.04268 26.375 9.32719 26.4427 9.61437C26.511 9.90154 26.5809 10.1765 26.6516 10.441C26.7283 10.1639 26.8035 9.88083 26.877 9.59107C26.9495 9.3008 27.021 9.01568 27.0892 8.73546C27.1563 8.45559 27.2225 8.18381 27.2828 7.92216C27.3442 7.66086 27.3987 7.41557 27.4468 7.18935H28.3996C28.4482 7.41557 28.4995 7.66086 28.5593 7.92216C28.6175 8.18381 28.6795 8.45559 28.745 8.73546C28.8086 9.01568 28.8778 9.3008 28.9472 9.59107C29.0185 9.88083 29.0916 10.1639 29.1672 10.441C29.2386 10.1765 29.3095 9.90154 29.3809 9.61437C29.4524 9.32719 29.5195 9.04268 29.5809 8.75971C29.6423 8.4758 29.7016 8.19971 29.7587 7.93163C29.8153 7.66405 29.8666 7.41557 29.9137 7.18935Z" fill="white"/>
</mask>
<g mask="url(#mask6_1615_260)">
<path fill-rule="evenodd" clip-rule="evenodd" d="M-63.0095 26.1272L122.431 26.1272L122.431 -236.58H-63.0095L-63.0095 26.1272Z" fill="#00BA34"/>
</g>
<mask id="mask7_1615_260" style="mask-type:luminance" maskUnits="userSpaceOnUse" x="24" y="7" width="8" height="6">
<path d="M29.9137 7.18935H31.2829C31.1528 7.68159 31.0189 8.16799 30.8797 8.64897C30.7395 9.13227 30.6057 9.589 30.4718 10.0203C30.3401 10.4531 30.21 10.851 30.0834 11.2177C29.956 11.5827 29.8385 11.8974 29.7338 12.1624H28.7091C28.5609 11.6834 28.4171 11.2075 28.2753 10.7344C28.134 10.2629 28.006 9.78608 27.8875 9.30708C27.7695 9.78608 27.6451 10.2629 27.5125 10.7344C27.3801 11.2075 27.2394 11.6834 27.0939 12.1624H26.0692C25.9628 11.8974 25.847 11.5827 25.7232 11.2177C25.5983 10.851 25.4708 10.4531 25.337 10.0203C25.2047 9.589 25.0693 9.13227 24.9307 8.64897C24.7916 8.16799 24.6567 7.68159 24.5276 7.18935H25.9147C25.9608 7.41557 26.0131 7.66405 26.0697 7.93163C26.1258 8.19971 26.185 8.4758 26.247 8.75971C26.3088 9.04268 26.375 9.32719 26.4427 9.61437C26.511 9.90154 26.5809 10.1765 26.6516 10.441C26.7283 10.1639 26.8035 9.88083 26.877 9.59107C26.9495 9.3008 27.021 9.01568 27.0892 8.73546C27.1563 8.45559 27.2225 8.18381 27.2828 7.92216C27.3442 7.66086 27.3987 7.41557 27.4468 7.18935H28.3996C28.4482 7.41557 28.4995 7.66086 28.5593 7.92216C28.6175 8.18381 28.6795 8.45559 28.745 8.73546C28.8086 9.01568 28.8778 9.3008 28.9472 9.59107C29.0185 9.88083 29.0916 10.1639 29.1672 10.441C29.2386 10.1765 29.3095 9.90154 29.3809 9.61437C29.4524 9.32719 29.5195 9.04268 29.5809 8.75971C29.6423 8.4758 29.7016 8.19971 29.7587 7.93163C29.8153 7.66405 29.8666 7.41557 29.9137 7.18935Z" fill="white"/>
</mask>
<g mask="url(#mask7_1615_260)">
<path fill-rule="evenodd" clip-rule="evenodd" d="M22.32 14.3701H33.4905V4.98182H22.32V14.3701Z" fill="#00BA34"/>
</g>
<path fill-rule="evenodd" clip-rule="evenodd" d="M32.2132 12.1604H33.5274V7.18844H32.2132V12.1604Z" fill="#00BA34"/>
<mask id="mask8_1615_260" style="mask-type:luminance" maskUnits="userSpaceOnUse" x="32" y="7" width="2" height="6">
<path d="M32.2132 12.1604V7.18844H33.5275V12.1604H32.2132Z" fill="white"/>
</mask>
<g mask="url(#mask8_1615_260)">
<path fill-rule="evenodd" clip-rule="evenodd" d="M-63.0095 26.127L122.431 26.127L122.431 -236.581H-63.0095L-63.0095 26.127Z" fill="#00BA34"/>
</g>
<mask id="mask9_1615_260" style="mask-type:luminance" maskUnits="userSpaceOnUse" x="32" y="7" width="2" height="6">
<path d="M32.2132 12.1604V7.18844H33.5275V12.1604H32.2132Z" fill="white"/>
</mask>
<g mask="url(#mask9_1615_260)">
<path fill-rule="evenodd" clip-rule="evenodd" d="M30.0056 14.3679H35.7349V4.98065H30.0056V14.3679Z" fill="#00BA34"/>
</g>
<path fill-rule="evenodd" clip-rule="evenodd" d="M34.5727 5.94843L35.8879 5.6989V7.19086H37.1894V8.36073H35.8879V10.1103C35.8879 10.4064 35.9366 10.6449 36.0334 10.8192C36.1302 10.9956 36.3264 11.0841 36.6201 11.0841C36.7624 11.0841 36.9084 11.0714 37.0576 11.0422C37.2083 11.0136 37.3449 10.9728 37.4692 10.9236L37.6539 12.0204C37.4946 12.0902 37.3173 12.1496 37.1243 12.2004C36.929 12.2502 36.6926 12.2756 36.4089 12.2756C36.0493 12.2756 35.7525 12.2238 35.5171 12.1188C35.2811 12.0166 35.0927 11.872 34.9521 11.6843C34.8113 11.5 34.713 11.2727 34.6564 11.0094C34.5992 10.744 34.5727 10.4504 34.5727 10.1298V5.94843Z" fill="#00BA34"/>
<mask id="mask10_1615_260" style="mask-type:luminance" maskUnits="userSpaceOnUse" x="34" y="5" width="4" height="8">
<path d="M34.5728 5.94843L35.8878 5.6989V7.19086H37.1893V8.36073H35.8878V10.1103C35.8878 10.4064 35.9366 10.6448 36.0334 10.8192C36.1302 10.9956 36.3264 11.084 36.6201 11.084C36.7624 11.084 36.9084 11.0714 37.0576 11.0422C37.2083 11.0135 37.3449 10.9728 37.4691 10.9236L37.6538 12.0203C37.4946 12.0902 37.3173 12.1496 37.1243 12.2004C36.929 12.2502 36.6926 12.2756 36.409 12.2756C36.0493 12.2756 35.7524 12.2238 35.5171 12.1188C35.2811 12.0165 35.0928 11.872 34.9521 11.6844C34.8114 11.5 34.713 11.2728 34.6563 11.0094C34.5992 10.744 34.5728 10.4503 34.5728 10.1299V5.94843Z" fill="white"/>
</mask>
<g mask="url(#mask10_1615_260)">
<path fill-rule="evenodd" clip-rule="evenodd" d="M-63.0095 26.127L122.431 26.127L122.431 -236.581H-63.0095L-63.0095 26.127Z" fill="#00BA34"/>
</g>
<mask id="mask11_1615_260" style="mask-type:luminance" maskUnits="userSpaceOnUse" x="34" y="5" width="4" height="8">
<path d="M34.5728 5.94843L35.8878 5.6989V7.19086H37.1893V8.36073H35.8878V10.1103C35.8878 10.4064 35.9366 10.6448 36.0334 10.8192C36.1302 10.9956 36.3264 11.084 36.6201 11.084C36.7624 11.084 36.9084 11.0714 37.0576 11.0422C37.2083 11.0135 37.3449 10.9728 37.4691 10.9236L37.6538 12.0203C37.4946 12.0902 37.3173 12.1496 37.1243 12.2004C36.929 12.2502 36.6926 12.2756 36.409 12.2756C36.0493 12.2756 35.7524 12.2238 35.5171 12.1188C35.2811 12.0165 35.0928 11.872 34.9521 11.6844C34.8114 11.5 34.713 11.2728 34.6563 11.0094C34.5992 10.744 34.5728 10.4503 34.5728 10.1299V5.94843Z" fill="white"/>
</mask>
<g mask="url(#mask11_1615_260)">
<path fill-rule="evenodd" clip-rule="evenodd" d="M32.3651 14.4834H39.8615V3.49131H32.3651V14.4834Z" fill="#00BA34"/>
</g>
<path fill-rule="evenodd" clip-rule="evenodd" d="M38.1186 9.6768C38.1186 9.31697 38.1732 8.97794 38.2822 8.66006C38.3911 8.34108 38.5483 8.06456 38.7541 7.82767C38.9604 7.59088 39.2101 7.4043 39.5052 7.26502C39.7989 7.12779 40.1343 7.05677 40.511 7.05677C40.758 7.05677 40.985 7.08171 41.1913 7.1283C41.3977 7.17654 41.5987 7.24387 41.7918 7.33122L41.5189 8.45611C41.3945 8.40625 41.2595 8.36282 41.1115 8.32362C40.9644 8.28648 40.7988 8.26696 40.6168 8.26696C40.2285 8.26696 39.938 8.39671 39.7481 8.65525C39.5549 8.9144 39.4608 9.25402 39.4608 9.6768C39.4608 10.1234 39.5502 10.4704 39.7312 10.7163C39.9089 10.9616 40.2232 11.0851 40.6702 11.0851C40.8295 11.0851 40.9993 11.0686 41.1828 11.0374C41.3649 11.0056 41.5325 10.9558 41.687 10.8859L41.8712 12.0398C41.7176 12.1092 41.5273 12.1675 41.2977 12.2188C41.067 12.2688 40.8146 12.2947 40.5385 12.2947C40.1147 12.2947 39.7487 12.2258 39.4433 12.0906C39.1377 11.9556 38.8852 11.7711 38.6884 11.538C38.4901 11.3044 38.3472 11.0289 38.2558 10.711C38.1642 10.3926 38.1186 10.0472 38.1186 9.6768Z" fill="#00BA34"/>
<mask id="mask12_1615_260" style="mask-type:luminance" maskUnits="userSpaceOnUse" x="38" y="7" width="4" height="6">
<path d="M39.5053 7.26526C39.7989 7.12803 40.1343 7.05701 40.511 7.05701C40.758 7.05701 40.985 7.08186 41.1913 7.12846C41.3976 7.17678 41.5988 7.24402 41.7918 7.33146L41.5189 8.45627C41.3945 8.40649 41.2596 8.36307 41.1114 8.32387C40.9643 8.28664 40.7988 8.26712 40.6168 8.26712C40.2286 8.26712 39.938 8.39695 39.7481 8.6555C39.555 8.91456 39.4608 9.25418 39.4608 9.67705C39.4608 10.1236 39.5503 10.4707 39.7312 10.7166C39.909 10.9619 40.2231 11.0853 40.6702 11.0853C40.8295 11.0853 40.9993 11.0688 41.1829 11.0376C41.3649 11.0058 41.5326 10.956 41.687 10.886L41.8712 12.0401C41.7178 12.1095 41.5273 12.1677 41.2977 12.2191C41.067 12.269 40.8147 12.2949 40.5385 12.2949C40.1146 12.2949 39.7487 12.226 39.4434 12.0908C39.1377 11.9557 38.8853 11.7714 38.6884 11.5384C38.4902 11.3047 38.3473 11.0292 38.2558 10.7112C38.1642 10.3928 38.1187 10.0474 38.1187 9.67705C38.1187 9.31721 38.1733 8.97818 38.2822 8.66031C38.3911 8.34132 38.5483 8.06472 38.7541 7.82783C38.9604 7.59104 39.2101 7.40455 39.5053 7.26526Z" fill="white"/>
</mask>
<g mask="url(#mask12_1615_260)">
<path fill-rule="evenodd" clip-rule="evenodd" d="M-63.0095 26.1272L122.431 26.1272L122.431 -236.58H-63.0095L-63.0095 26.1272Z" fill="#00BA34"/>
</g>
<mask id="mask13_1615_260" style="mask-type:luminance" maskUnits="userSpaceOnUse" x="38" y="7" width="4" height="6">
<path d="M39.5053 7.26526C39.7989 7.12803 40.1343 7.05701 40.511 7.05701C40.758 7.05701 40.985 7.08186 41.1913 7.12846C41.3976 7.17678 41.5988 7.24402 41.7918 7.33146L41.5189 8.45627C41.3945 8.40649 41.2596 8.36307 41.1114 8.32387C40.9643 8.28664 40.7988 8.26712 40.6168 8.26712C40.2286 8.26712 39.938 8.39695 39.7481 8.6555C39.555 8.91456 39.4608 9.25418 39.4608 9.67705C39.4608 10.1236 39.5503 10.4707 39.7312 10.7166C39.909 10.9619 40.2231 11.0853 40.6702 11.0853C40.8295 11.0853 40.9993 11.0688 41.1829 11.0376C41.3649 11.0058 41.5326 10.956 41.687 10.886L41.8712 12.0401C41.7178 12.1095 41.5273 12.1677 41.2977 12.2191C41.067 12.269 40.8147 12.2949 40.5385 12.2949C40.1146 12.2949 39.7487 12.226 39.4434 12.0908C39.1377 11.9557 38.8853 11.7714 38.6884 11.5384C38.4902 11.3047 38.3473 11.0292 38.2558 10.7112C38.1642 10.3928 38.1187 10.0474 38.1187 9.67705C38.1187 9.31721 38.1733 8.97818 38.2822 8.66031C38.3911 8.34132 38.5483 8.06472 38.7541 7.82783C38.9604 7.59104 39.2101 7.40455 39.5053 7.26526Z" fill="white"/>
</mask>
<g mask="url(#mask13_1615_260)">
<path fill-rule="evenodd" clip-rule="evenodd" d="M35.911 14.5027H44.0787V4.84944H35.911V14.5027Z" fill="#00BA34"/>
</g>
<path fill-rule="evenodd" clip-rule="evenodd" d="M42.7214 12.1604V5.94651L44.0371 5.69914V7.20915C44.1249 7.17785 44.2376 7.14767 44.3774 7.11912C44.5148 7.09101 44.6497 7.07613 44.7789 7.07613C45.155 7.07613 45.4676 7.13176 45.7183 7.24148C45.9681 7.3517 46.1696 7.50802 46.3188 7.70982C46.4702 7.91067 46.5749 8.15116 46.6379 8.42725C46.6987 8.70531 46.7293 9.01484 46.7293 9.35499V12.1604H45.4141V9.52394C45.4141 9.07039 45.3597 8.74934 45.2513 8.55914C45.1422 8.37205 44.9402 8.27729 44.6466 8.27729C44.527 8.27729 44.4179 8.28847 44.3143 8.30962C44.2117 8.33189 44.1191 8.35623 44.0371 8.38116V12.1604H42.7214Z" fill="#00BA34"/>
<mask id="mask14_1615_260" style="mask-type:luminance" maskUnits="userSpaceOnUse" x="42" y="5" width="5" height="8">
<path d="M42.7214 5.94651L44.037 5.69914V7.20923C44.1249 7.17785 44.2376 7.14767 44.3773 7.11912C44.5148 7.09101 44.6497 7.07622 44.7789 7.07622C45.1549 7.07622 45.4677 7.13185 45.7184 7.24148C45.9681 7.35179 46.1697 7.50802 46.3188 7.70991C46.47 7.91067 46.5749 8.15116 46.6379 8.42733C46.6987 8.7054 46.7293 9.01484 46.7293 9.35508V12.1604H45.4142V9.52394C45.4142 9.07047 45.3596 8.74934 45.2512 8.55914C45.1422 8.37213 44.9402 8.27729 44.6465 8.27729C44.527 8.27729 44.4179 8.28847 44.3143 8.30971C44.2116 8.33189 44.1191 8.35623 44.037 8.38116V12.1604H42.7214V5.94651Z" fill="white"/>
</mask>
<g mask="url(#mask14_1615_260)">
<path fill-rule="evenodd" clip-rule="evenodd" d="M-63.0095 26.127L122.431 26.127L122.431 -236.581H-63.0095L-63.0095 26.127Z" fill="#00BA34"/>
</g>
<mask id="mask15_1615_260" style="mask-type:luminance" maskUnits="userSpaceOnUse" x="42" y="5" width="5" height="8">
<path d="M42.7214 5.94651L44.037 5.69914V7.20923C44.1249 7.17785 44.2376 7.14767 44.3773 7.11912C44.5148 7.09101 44.6497 7.07622 44.7789 7.07622C45.1549 7.07622 45.4677 7.13185 45.7184 7.24148C45.9681 7.35179 46.1697 7.50802 46.3188 7.70991C46.47 7.91067 46.5749 8.15116 46.6379 8.42733C46.6987 8.7054 46.7293 9.01484 46.7293 9.35508V12.1604H45.4142V9.52394C45.4142 9.07047 45.3596 8.74934 45.2512 8.55914C45.1422 8.37213 44.9402 8.27729 44.6465 8.27729C44.527 8.27729 44.4179 8.28847 44.3143 8.30971C44.2116 8.33189 44.1191 8.35623 44.037 8.38116V12.1604H42.7214V5.94651Z" fill="white"/>
</mask>
<g mask="url(#mask15_1615_260)">
<path fill-rule="evenodd" clip-rule="evenodd" d="M40.5138 14.3682H48.9369V3.49152H40.5138V14.3682Z" fill="#00BA34"/>
</g>
<path fill-rule="evenodd" clip-rule="evenodd" d="M3.05463 12.1621L3.05463 7.65641C3.05463 7.65641 3.71591 7.09108 5.16229 7.09108C6.4785 7.09108 7.20126 7.79527 7.20126 9.345V12.1621H5.8866V9.345C5.8866 8.35794 5.42522 8.28958 5.03108 8.28958C4.63695 8.28958 4.37298 8.49937 4.37298 8.49937V12.1621H3.05463Z" fill="#00BA34"/>
<mask id="mask16_1615_260" style="mask-type:luminance" maskUnits="userSpaceOnUse" x="3" y="7" width="5" height="6">
<path d="M3.05466 7.65641C3.05466 7.65641 3.71594 7.09108 5.16232 7.09108C6.47853 7.09108 7.2012 7.79518 7.2012 9.34509V12.1621H5.88663V9.34509C5.88663 8.35785 5.42525 8.28958 5.03111 8.28958C4.63698 8.28958 4.37301 8.49946 4.37301 8.49946V12.1621H3.05466L3.05466 7.65641Z" fill="white"/>
</mask>
<g mask="url(#mask16_1615_260)">
<path fill-rule="evenodd" clip-rule="evenodd" d="M-63.0095 26.127L122.431 26.127L122.431 -236.581H-63.0095L-63.0095 26.127Z" fill="#00BA34"/>
</g>
<mask id="mask17_1615_260" style="mask-type:luminance" maskUnits="userSpaceOnUse" x="3" y="7" width="5" height="6">
<path d="M3.05466 7.65641C3.05466 7.65641 3.71594 7.09108 5.16232 7.09108C6.47853 7.09108 7.2012 7.79518 7.2012 9.34509V12.1621H5.88663V9.34509C5.88663 8.35785 5.42525 8.28958 5.03111 8.28958C4.63698 8.28958 4.37301 8.49946 4.37301 8.49946V12.1621H3.05466L3.05466 7.65641Z" fill="white"/>
</mask>
<g mask="url(#mask17_1615_260)">
<path fill-rule="evenodd" clip-rule="evenodd" d="M0.847107 14.3699H9.40883V4.88359H0.847107L0.847107 14.3699Z" fill="#00BA34"/>
</g>
<path fill-rule="evenodd" clip-rule="evenodd" d="M0.577698 12.1621L0.577698 5.94714L1.89391 5.69914L1.89391 12.1621H0.577698Z" fill="#00BA34"/>
<mask id="mask18_1615_260" style="mask-type:luminance" maskUnits="userSpaceOnUse" x="0" y="5" width="2" height="8">
<path d="M0.577698 5.94723L1.89391 5.69914L1.89391 12.1621H0.577698L0.577698 5.94723Z" fill="white"/>
</mask>
<g mask="url(#mask18_1615_260)">
<path fill-rule="evenodd" clip-rule="evenodd" d="M-63.0095 26.127L122.431 26.127L122.431 -236.581H-63.0095L-63.0095 26.127Z" fill="#00BA34"/>
</g>
<mask id="mask19_1615_260" style="mask-type:luminance" maskUnits="userSpaceOnUse" x="0" y="5" width="2" height="8">
<path d="M0.577698 5.94723L1.89391 5.69914L1.89391 12.1621H0.577698L0.577698 5.94723Z" fill="white"/>
</mask>
<g mask="url(#mask19_1615_260)">
<path fill-rule="evenodd" clip-rule="evenodd" d="M-1.62994 14.3699H4.10158L4.10158 3.49168H-1.62994L-1.62994 14.3699Z" fill="#00BA34"/>
</g>
<path fill-rule="evenodd" clip-rule="evenodd" d="M16.1198 10.0328H13.1593C13.1593 10.0328 13.2254 11.0888 14.5401 11.0888C15.1983 11.0888 15.8564 10.8784 15.8564 10.8784L15.9881 12.0064C15.9881 12.0064 15.3305 12.2856 14.41 12.2856C13.0932 12.2856 11.9092 11.5825 11.9092 9.6111C11.9092 8.06077 12.8298 7.07636 14.1455 7.07636C16.1198 7.07636 16.2521 9.18609 16.1198 10.0328ZM14.081 8.06077C13.2254 8.06077 13.1593 9.0462 13.1593 9.0462H15.0004C15.0004 9.0462 14.9359 8.06077 14.081 8.06077Z" fill="#00BA34"/>
<mask id="mask20_1615_260" style="mask-type:luminance" maskUnits="userSpaceOnUse" x="11" y="7" width="6" height="6">
<path d="M11.9093 9.61126C11.9093 8.06093 12.8298 7.07652 14.1455 7.07652C16.1198 7.07652 16.2521 9.18634 16.1198 10.033H13.1594C13.1594 10.033 13.2255 11.0889 14.5401 11.0889C15.1983 11.0889 15.8564 10.8785 15.8564 10.8785L15.9881 12.0065C15.9881 12.0065 15.3305 12.2859 14.41 12.2859C13.0933 12.2859 11.9093 11.5827 11.9093 9.61126ZM14.0809 8.06093C13.2255 8.06093 13.1594 9.04645 13.1594 9.04645H15.0004C15.0004 9.04645 14.9359 8.06093 14.0809 8.06093Z" fill="white"/>
</mask>
<g mask="url(#mask20_1615_260)">
<path fill-rule="evenodd" clip-rule="evenodd" d="M-63.0095 26.1272L122.431 26.1272L122.431 -236.58H-63.0095L-63.0095 26.1272Z" fill="#00BA34"/>
</g>
<mask id="mask21_1615_260" style="mask-type:luminance" maskUnits="userSpaceOnUse" x="11" y="7" width="6" height="6">
<path d="M11.9093 9.61126C11.9093 8.06093 12.8298 7.07652 14.1455 7.07652C16.1198 7.07652 16.2521 9.18634 16.1198 10.033H13.1594C13.1594 10.033 13.2255 11.0889 14.5401 11.0889C15.1983 11.0889 15.8564 10.8785 15.8564 10.8785L15.9881 12.0065C15.9881 12.0065 15.3305 12.2859 14.41 12.2859C13.0933 12.2859 11.9093 11.5827 11.9093 9.61126ZM14.0809 8.06093C13.2255 8.06093 13.1594 9.04645 13.1594 9.04645H15.0004C15.0004 9.04645 14.9359 8.06093 14.0809 8.06093Z" fill="white"/>
</mask>
<g mask="url(#mask21_1615_260)">
<path fill-rule="evenodd" clip-rule="evenodd" d="M9.70166 14.4934H18.3643V4.86881H9.70166V14.4934Z" fill="#00BA34"/>
</g>
<mask id="mask22_1615_260" style="mask-type:luminance" maskUnits="userSpaceOnUse" x="48" y="4" width="10" height="12">
<path d="M48.4727 5.70038C48.4727 5.39996 52.2568 4.75166 54.7946 4.75166C55.8952 4.75166 56.7613 4.87358 56.9828 5.19859C58.1255 6.70757 50.0811 16.1746 49.4108 15.8874C48.8732 15.7438 53.6996 9.71804 52.8951 7.27823C52.4935 5.98807 48.4727 6.13158 48.4727 5.70038Z" fill="white"/>
</mask>
<g mask="url(#mask22_1615_260)">
<path fill-rule="evenodd" clip-rule="evenodd" d="M46.2652 18.1016H59.3014V2.54414H46.2652V18.1016Z" fill="#00BA34"/>
</g>
<mask id="mask23_1615_260" style="mask-type:luminance" maskUnits="userSpaceOnUse" x="55" y="0" width="4" height="4">
<path d="M55.3076 1.9705C55.3076 0.940017 56.0879 0.106081 57.0497 0.106081C58.0125 0.106081 58.7918 0.940017 58.7918 1.9705C58.7918 3.00151 58.0125 3.83545 57.0497 3.83545C56.0879 3.83545 55.3076 3.00151 55.3076 1.9705Z" fill="white"/>
</mask>
<g mask="url(#mask23_1615_260)">
<path fill-rule="evenodd" clip-rule="evenodd" d="M53.1 6.04321L60.9994 6.04321V-2.10156H53.1V6.04321Z" fill="#00BA34"/>
</g>
</g>
<defs>
<clipPath id="clip0_1615_260">
<rect width="58.4086" height="16" fill="white" transform="translate(0.469299)"/>
</clipPath>
</defs>
</svg>
