<svg width="21" height="16" viewBox="0 0 21 16" fill="none" xmlns="http://www.w3.org/2000/svg">
<g clip-path="url(#clip0_1615_244)">
<path d="M3.90304 15.87V14.815C3.91548 14.6355 3.85009 14.4594 3.72355 14.3315C3.597 14.2036 3.42155 14.1363 3.24194 14.1469C3.00526 14.1314 2.77888 14.2459 2.65118 14.4458C2.53474 14.2519 2.32155 14.1372 2.09557 14.1469C1.89881 14.1369 1.71149 14.2319 1.60326 14.3966V14.1891H1.23755V15.87H1.60678V14.9451C1.59088 14.8287 1.62775 14.7113 1.70734 14.625C1.78693 14.5386 1.90092 14.4922 2.01821 14.4985C2.26085 14.4985 2.38392 14.6568 2.38392 14.9416V15.877H2.75315V14.9451C2.7379 14.8289 2.775 14.7119 2.85444 14.6256C2.93388 14.5394 3.04748 14.4928 3.16458 14.4985C3.41425 14.4985 3.53381 14.6568 3.53381 14.9416V15.877L3.90304 15.87ZM9.3659 14.1891H8.76458V13.6792H8.39535V14.1891H8.06129V14.5231H8.40238V15.2968C8.40238 15.6871 8.55359 15.9192 8.98612 15.9192C9.14771 15.9197 9.30618 15.8746 9.44326 15.7891L9.33777 15.4761C9.2397 15.5346 9.12839 15.5673 9.01425 15.5711C8.83843 15.5711 8.77162 15.4585 8.77162 15.2897V14.5231H9.36942L9.3659 14.1891ZM12.485 14.1469C12.3034 14.1415 12.1334 14.236 12.0419 14.393V14.1891H11.6797V15.87H12.0455V14.9275C12.0455 14.6497 12.165 14.495 12.3971 14.495C12.4753 14.4939 12.553 14.5083 12.6257 14.5372L12.7382 14.1856C12.6547 14.1557 12.5667 14.1402 12.478 14.1399L12.485 14.1469ZM7.76942 14.3227C7.56241 14.1996 7.3244 14.1386 7.0837 14.1469C6.65821 14.1469 6.38041 14.3508 6.38041 14.6849C6.38041 14.9592 6.58436 15.128 6.96063 15.1807L7.13645 15.2053C7.33689 15.2335 7.43184 15.2862 7.43184 15.3812C7.43184 15.5113 7.29821 15.5851 7.04854 15.5851C6.84771 15.5909 6.65077 15.529 6.48942 15.4093L6.31359 15.6941C6.52662 15.8429 6.78178 15.9193 7.04151 15.9122C7.52678 15.9122 7.8081 15.6836 7.8081 15.3636C7.8081 15.0436 7.58656 14.9135 7.22085 14.8607L7.04502 14.8361C6.88678 14.815 6.76019 14.7834 6.76019 14.6708C6.76019 14.5583 6.87975 14.4739 7.08019 14.4739C7.26545 14.4761 7.44706 14.5257 7.60766 14.6181L7.76942 14.3227ZM17.5646 14.1469C17.3829 14.1415 17.2129 14.236 17.1215 14.393V14.1891H16.7593V15.87H17.125V14.9275C17.125 14.6497 17.2446 14.495 17.4767 14.495C17.5549 14.4939 17.6326 14.5083 17.7052 14.5372L17.8178 14.1856C17.7342 14.1557 17.6463 14.1402 17.5576 14.1399L17.5646 14.1469ZM12.8525 15.026C12.8437 15.2648 12.936 15.4963 13.1066 15.6637C13.2773 15.831 13.5106 15.9186 13.7492 15.9051C13.9688 15.9163 14.1846 15.8448 14.354 15.7047L14.1782 15.4093C14.0518 15.5057 13.8976 15.5587 13.7386 15.5605C13.4583 15.5378 13.2424 15.3037 13.2424 15.0225C13.2424 14.7413 13.4583 14.5071 13.7386 14.4845C13.8976 14.4862 14.0518 14.5393 14.1782 14.6357L14.354 14.3403C14.1846 14.2002 13.9688 14.1287 13.7492 14.1399C13.5106 14.1263 13.2773 14.214 13.1066 14.3813C12.936 14.5486 12.8437 14.7801 12.8525 15.019V15.026ZM16.2776 15.026V14.1891H15.9118V14.393C15.7858 14.2309 15.5895 14.1393 15.3844 14.1469C14.8988 14.1469 14.5052 14.5405 14.5052 15.026C14.5052 15.5115 14.8988 15.9051 15.3844 15.9051C15.5895 15.9127 15.7858 15.8211 15.9118 15.659V15.8629H16.2776V15.026ZM14.9167 15.026C14.9329 14.7501 15.1668 14.5378 15.443 14.5481C15.7192 14.5585 15.9365 14.7877 15.932 15.0641C15.9275 15.3405 15.703 15.5626 15.4266 15.564C15.2858 15.5658 15.1507 15.5087 15.0539 15.4066C14.9571 15.3044 14.9073 15.1664 14.9167 15.026ZM10.5035 14.1469C10.018 14.1537 9.62987 14.5528 9.63667 15.0383C9.64347 15.5238 10.0426 15.9119 10.5281 15.9051C10.7811 15.9181 11.0298 15.8366 11.2261 15.6766L11.0503 15.4058C10.9115 15.5171 10.7395 15.579 10.5615 15.5816C10.3101 15.6032 10.0872 15.4208 10.0586 15.1702H11.307C11.307 15.1245 11.307 15.0788 11.307 15.0295C11.307 14.502 10.98 14.1504 10.5088 14.1504L10.5035 14.1469ZM10.5035 14.4739C10.614 14.4716 10.7209 14.5132 10.8007 14.5897C10.8805 14.6662 10.9267 14.7713 10.929 14.8818H10.0499C10.0631 14.6471 10.2615 14.4659 10.4965 14.4739H10.5035ZM19.6657 15.0295V13.5139H19.314V14.393C19.188 14.2309 18.9917 14.1393 18.7866 14.1469C18.301 14.1469 17.9074 14.5405 17.9074 15.026C17.9074 15.5115 18.301 15.9051 18.7866 15.9051C18.9917 15.9127 19.188 15.8211 19.314 15.659V15.8629H19.6657V15.0295ZM20.2758 15.6256C20.2987 15.6253 20.3213 15.6295 20.3426 15.6379C20.3628 15.6461 20.3813 15.658 20.3971 15.673C20.4126 15.6882 20.4251 15.7061 20.434 15.7258C20.452 15.7673 20.452 15.8144 20.434 15.8559C20.4251 15.8756 20.4126 15.8935 20.3971 15.9086C20.3813 15.9236 20.3628 15.9356 20.3426 15.9438C20.3216 15.9531 20.2988 15.9579 20.2758 15.9579C20.2078 15.9574 20.1461 15.9176 20.1176 15.8559C20.0998 15.8143 20.0998 15.7673 20.1176 15.7258C20.1265 15.7061 20.139 15.6882 20.1545 15.673C20.1703 15.658 20.1888 15.6461 20.209 15.6379C20.2319 15.6288 20.2564 15.6246 20.2811 15.6256H20.2758ZM20.2758 15.9227C20.2933 15.9228 20.3107 15.9192 20.3268 15.9122C20.3419 15.9054 20.3556 15.8959 20.3672 15.884C20.4128 15.8343 20.4128 15.7579 20.3672 15.7082C20.3557 15.6963 20.3419 15.6868 20.3268 15.6801C20.3107 15.6731 20.2933 15.6695 20.2758 15.6695C20.2583 15.6696 20.2409 15.6732 20.2248 15.6801C20.209 15.6865 20.1947 15.6961 20.1826 15.7082C20.137 15.7579 20.137 15.8343 20.1826 15.884C20.1947 15.8961 20.209 15.9056 20.2248 15.9122C20.2425 15.9198 20.2618 15.9234 20.2811 15.9227H20.2758ZM20.2863 15.7135C20.3028 15.7127 20.3189 15.7177 20.3321 15.7275C20.343 15.7366 20.3489 15.7503 20.3479 15.7645C20.3484 15.7763 20.3439 15.7878 20.3356 15.7961C20.3254 15.8054 20.3124 15.8109 20.2987 15.8119L20.3496 15.87H20.3092L20.2617 15.8119H20.2459V15.87H20.2125V15.7152L20.2863 15.7135ZM20.2477 15.7434V15.7856H20.2863C20.2932 15.7876 20.3006 15.7876 20.3074 15.7856C20.3099 15.7806 20.3099 15.7747 20.3074 15.7697C20.3099 15.7648 20.3099 15.7589 20.3074 15.7539C20.3006 15.7519 20.2932 15.7519 20.2863 15.7539L20.2477 15.7434ZM18.3136 15.0295C18.3299 14.7536 18.5637 14.5413 18.8399 14.5516C19.1161 14.562 19.3334 14.7913 19.3289 15.0676C19.3244 15.344 19.0999 15.5661 18.8235 15.5675C18.6827 15.5693 18.5477 15.5122 18.4508 15.4101C18.354 15.3079 18.3043 15.17 18.3136 15.0295ZM5.96546 15.0295V14.1891H5.59975V14.393C5.47375 14.2309 5.27746 14.1393 5.07227 14.1469C4.58675 14.1469 4.19315 14.5405 4.19315 15.026C4.19315 15.5115 4.58675 15.9051 5.07227 15.9051C5.27746 15.9127 5.47375 15.8211 5.59975 15.659V15.8629H5.96546V15.0295ZM4.60458 15.0295C4.62085 14.7536 4.85468 14.5413 5.13089 14.5516C5.4071 14.562 5.62437 14.7913 5.6199 15.0676C5.61543 15.344 5.39087 15.5661 5.11447 15.5675C4.97313 15.5703 4.8371 15.5137 4.7395 15.4114C4.6419 15.3091 4.59168 15.1706 4.60107 15.0295H4.60458Z" fill="#00BA34"/>
<path d="M20.0542 10.3634V10.0892H20.1368V10.0325H19.9276V10.0892H20.0173V10.3634H20.0542ZM20.4604 10.3634V10.0325H20.3971L20.3232 10.2689L20.2494 10.0325H20.1931V10.3634H20.2388V10.1152L20.3074 10.3303H20.3549L20.4234 10.1152V10.3658L20.4604 10.3634Z" fill="#00BA34"/>
<path d="M9.91675 11.4846C9.9667 11.5265 10.0201 11.5683 10.0726 11.6093C9.05909 12.2781 7.84234 12.6667 6.53603 12.6667C3.00806 12.6675 0.14917 9.83202 0.14917 6.33376C0.14917 2.83636 3.00806 0 6.53517 0C7.84234 0 9.05909 0.389455 10.07 1.05733C10.0184 1.10089 9.9667 1.14103 9.92795 1.18544C8.41584 2.48106 7.55042 4.35916 7.55042 6.33376C7.55042 8.30751 8.41239 10.1856 9.91675 11.4846ZM14.4298 0C13.1209 0 11.9059 0.389455 10.895 1.05733C10.9466 1.10089 10.9983 1.14103 11.0371 1.18544C12.5492 2.48106 13.4146 4.35916 13.4146 6.33376C13.4146 8.30665 12.5526 10.183 11.0483 11.4846C10.9983 11.5265 10.9449 11.5683 10.8924 11.6093C11.9059 12.2781 13.1209 12.6667 14.429 12.6667C17.9569 12.6675 20.8158 9.83202 20.8158 6.33376C20.8158 2.83721 17.9569 0 14.4298 0ZM10.4825 1.35797C10.3998 1.42202 10.3198 1.48608 10.2414 1.55526C8.89461 2.71593 8.0447 4.42492 8.0447 6.33376C8.0447 8.24345 8.89461 9.95159 10.2414 11.1123C10.3189 11.1806 10.4007 11.2472 10.4825 11.3104C10.5652 11.2472 10.6453 11.1806 10.7236 11.1123C12.0695 9.95159 12.9203 8.24345 12.9203 6.33376C12.9203 4.42492 12.0704 2.71593 10.7236 1.55526C10.6461 1.48693 10.5652 1.42202 10.4825 1.35797Z" fill="#00BA34"/>
</g>
<defs>
<clipPath id="clip0_1615_244">
<rect width="20.6667" height="16" fill="white" transform="translate(0.14917)"/>
</clipPath>
</defs>
</svg>
