<svg width="151" height="150" viewBox="0 0 151 150" fill="none" xmlns="http://www.w3.org/2000/svg">
<path d="M149.876 128.342C153.494 121.183 143.154 85.3848 71.4613 85.3848C19.7137 85.3848 -4.03707 114.686 1.21375 129.535" fill="url(#paint0_radial_1305_4250)"/>
<mask id="mask0_1305_4250" style="mask-type:luminance" maskUnits="userSpaceOnUse" x="0" y="85" width="151" height="45">
<path d="M149.876 128.342C153.494 121.183 143.154 85.3848 71.4613 85.3848C19.7137 85.3848 -4.03707 114.686 1.21375 129.535" fill="white"/>
</mask>
<g mask="url(#mask0_1305_4250)">
<ellipse opacity="0.671968" cx="60.4037" cy="116.999" rx="3.94276" ry="2.19001" fill="url(#paint1_linear_1305_4250)"/>
<ellipse opacity="0.256348" cx="100.647" cy="102.116" rx="6.22079" ry="3.41641" fill="url(#paint2_linear_1305_4250)"/>
<ellipse opacity="0.729957" cx="29.8517" cy="93.0063" rx="6.22079" ry="3.41641" fill="url(#paint3_linear_1305_4250)"/>
</g>
<path opacity="0.5" d="M58.9424 93.3226C58.9424 93.3226 74.198 100.496 80.2501 103.249C85.0438 105.43 109.728 112.405 112.669 110.423C115.609 108.44 122.102 102.998 119.959 99.2691C117.815 95.5406 106.542 88.8459 101.151 87.8678C95.7598 86.8896 80.3442 91.3362 80.3442 91.3362L67.1951 93.5943L58.9424 93.3226Z" fill="url(#paint4_linear_1305_4250)"/>
<path d="M70.2499 61.25L53.2499 73.75L57.7827 63.1154L74.8076 52.307L70.2499 61.25Z" fill="#E2E7EC"/>
<path d="M57.5 63.3349L74.8077 52.5V82.0497L58.9423 93.1731L57.5 63.3349Z" fill="#D8DFE6"/>
<path d="M74.8076 52.5L101.346 58.7087V88.2692L74.8076 82.0605V52.5Z" fill="#E9EFF1"/>
<path d="M57.5 63.332L84.6154 69.6689V99.2294L58.9423 93.334L57.5 63.332Z" fill="#E8EAEB"/>
<path d="M84.0381 69.6806L101.346 58.8457V88.3954L84.0381 99.2303V69.6806Z" fill="#D8DFE6"/>
<mask id="mask1_1305_4250" style="mask-type:luminance" maskUnits="userSpaceOnUse" x="84" y="58" width="18" height="42">
<path d="M84.0381 69.6806L101.346 58.8457V88.3954L84.0381 99.2303V69.6806Z" fill="white"/>
</mask>
<g mask="url(#mask1_1305_4250)">
<rect x="90.4668" y="56.3828" width="5.43956" height="45.3096" fill="#C7D0D9"/>
</g>
<path d="M91.8209 78.4611L108.846 67.6527L101.063 58.8457L84.0381 69.6541L91.8209 78.4611Z" fill="#E2E7EC"/>
<path opacity="0.5" d="M44.2233 94.069L70.9998 107.751L73.4998 100.501L47.2279 91.7615L44.2233 94.069Z" fill="url(#paint5_linear_1305_4250)"/>
<path d="M43.4923 71.5782L52.7254 72.306L50.6751 92.3898C50.6751 92.3898 50.4955 92.5906 50.0599 92.5127C49.6243 92.4347 49.1673 92.1923 49.1673 92.1923L47.794 76.2262C47.794 76.2262 46.9998 81.8718 47.0553 83.4602C47.0971 84.6569 47.5063 86.1168 47.7253 87.3654C47.9137 88.4401 48.3103 91.0084 48.3103 91.0084C48.3103 91.0084 47.8417 91.2224 47.5925 91.2707C47.3433 91.319 47.0239 91.0533 47.0239 91.0533C47.0239 91.0533 43.7866 84.7692 43.7449 83.5758C43.7033 82.3824 43.4923 71.5782 43.4923 71.5782Z" fill="url(#paint6_linear_1305_4250)"/>
<path d="M46.8805 91.0244C46.8805 91.0244 46.4692 91.765 45.9584 92.2164C45.4475 92.6678 44.4394 93.2069 44.2096 93.4519C43.9798 93.6968 44.2307 94.0578 44.2307 94.0578L46.7015 93.9715L48.6758 92.3013L48.3999 90.7096L46.8805 91.0244Z" fill="#677285"/>
<path d="M50.9076 91.8804L51.4844 93.4802C51.4844 93.4802 50.5372 94.2138 49.2284 94.4179C47.9197 94.6221 47.0179 94.3084 47.0179 94.3084C47.0179 94.3084 46.7816 93.8323 47.2269 93.6288C47.4315 93.5354 47.8899 93.1468 48.2924 92.6494C48.4742 92.4248 49.1586 91.9414 49.1586 91.9414L50.9076 91.8804Z" fill="#677285"/>
<path d="M55.0438 61.1068C55.0438 61.1068 55.8006 62.258 56.2646 61.9499C56.7287 61.6419 59.6256 58.6727 59.6256 58.6727C59.6256 58.6727 60.4873 58.0093 60.6467 58.167C60.8061 58.3247 60.3593 58.6727 60.3593 58.6727C60.3593 58.6727 61.2996 58.7651 61.5934 58.7651C61.8872 58.7651 62.5052 59.2342 62.1011 59.392C61.697 59.5499 60.1294 59.5889 60.1294 59.5889C60.1294 59.5889 57.7495 64.0895 56.5094 64.4087C55.2692 64.7278 53.5605 62.9229 53.5605 62.9229L55.0438 61.1068Z" fill="#FDE7E6"/>
<path d="M42.9522 61.1893C42.9522 61.1893 42.456 62.2053 42.0063 61.9616C41.5567 61.7178 39.0338 59.0572 39.0338 59.0572C39.0338 59.0572 38.1936 58.5426 37.9881 58.6352C37.7827 58.7278 38.2892 59.0572 38.2892 59.0572C38.2892 59.0572 37.0531 59.1575 36.8206 59.251C36.588 59.3444 36.3172 59.6311 36.6688 59.7613C37.0204 59.8916 38.3662 59.9843 38.3662 59.9843C38.3662 59.9843 40.2371 63.6814 41.6546 64.1137C43.0721 64.546 44.2797 62.8426 44.2797 62.8426L42.9522 61.1893Z" fill="#FDE7E6"/>
<path d="M47.5413 58.0778V56.2614C47.5413 56.2614 46.5995 56.3091 46.2167 55.6785C45.8339 55.0478 45.7305 53.2582 45.7305 53.2582L46.0189 52.4285L48.8556 52.3086L50.3459 53.5785L49.652 54.8041L49.5197 55.0396L50.1811 57.8248L47.5413 58.0778Z" fill="#FDE7E6"/>
<mask id="mask2_1305_4250" style="mask-type:luminance" maskUnits="userSpaceOnUse" x="45" y="52" width="6" height="7">
<path d="M47.5413 58.0778V56.2614C47.5413 56.2614 46.5995 56.3091 46.2167 55.6785C45.8339 55.0478 45.7305 53.2582 45.7305 53.2582L46.0189 52.4285L48.8556 52.3086L50.3459 53.5785L49.652 54.8041L49.5197 55.0396L50.1811 57.8248L47.5413 58.0778Z" fill="white"/>
</mask>
<g mask="url(#mask2_1305_4250)">
<path d="M49.3867 54.5349C48.5484 55.5776 47.0984 56.3062 46.9097 56.3062C46.7209 56.3062 47.964 57.6139 47.964 57.6139L48.9753 58.0775L50.4108 57.7732L50.9232 56.3062L50.0186 54.6419C50.0186 54.6419 50.2251 53.4923 49.3867 54.5349Z" fill="url(#paint7_linear_1305_4250)"/>
</g>
<path d="M42.3496 61.918L43.7436 63.7956L44.6326 62.8568C44.6326 62.8568 43.9565 66.5642 43.7436 68.3422C43.5307 70.1202 43.4911 71.8912 43.4911 71.8912C43.4911 71.8912 45.7232 72.7199 47.3872 72.8593C49.0511 72.9988 52.9247 72.6398 52.9247 72.6398L52.4247 62.2039L53.8755 63.5508L55.579 61.5838C55.579 61.5838 52.6465 57.0774 52.092 56.8149C51.5375 56.5523 49.9959 56.8149 49.9959 56.8149C49.9959 56.8149 48.902 58.1094 48.4584 58.1275C48.0148 58.1455 47.0309 56.8149 47.0309 56.8149C47.0309 56.8149 45.4589 56.5638 45.0018 57.0774C44.5447 57.591 42.3496 61.918 42.3496 61.918Z" fill="url(#paint8_linear_1305_4250)"/>
<path d="M45.7309 53.2784C45.7309 53.2784 46.0652 52.4348 46.5016 52.5818C46.9145 52.7209 47.2723 53.0519 47.786 53.2073C48.2998 53.3626 48.3566 52.6647 48.7057 52.7825C49.0549 52.9004 48.8244 53.9271 49.0705 54.1183C49.3166 54.3095 49.3166 52.7825 49.8412 53.1936C50.3657 53.6047 49.2938 54.7618 49.2938 54.7618C49.2938 54.7618 49.4313 55.473 49.4753 55.5214C49.5194 55.5697 49.5144 55.004 49.5144 55.004C49.5144 55.004 50.0154 54.8117 50.2289 53.9442C50.4424 53.0768 50.5347 52.7314 50.2289 52.1012C49.923 51.4709 49.8359 50.9773 49.0705 50.68C48.3051 50.3827 47.7244 50.499 47.1894 50.68C46.6545 50.861 46.2668 51.2207 46.0194 51.5787C45.4425 52.4283 45.7309 53.2784 45.7309 53.2784Z" fill="#4D364F"/>
<path fill-rule="evenodd" clip-rule="evenodd" d="M97.308 31.0305C96.7001 31.2163 84.1145 38.7465 84.1145 38.7465L87.7873 39.0203L90.3972 41.9047C90.3972 41.9047 97.9158 30.8447 97.308 31.0305Z" fill="#E8EAEB"/>
<mask id="mask3_1305_4250" style="mask-type:luminance" maskUnits="userSpaceOnUse" x="84" y="31" width="14" height="11">
<path fill-rule="evenodd" clip-rule="evenodd" d="M97.308 31.0305C96.7001 31.2163 84.1145 38.7465 84.1145 38.7465L87.7873 39.0203L90.3972 41.9047C90.3972 41.9047 97.9158 30.8447 97.308 31.0305Z" fill="white"/>
</mask>
<g mask="url(#mask3_1305_4250)">
<path fill-rule="evenodd" clip-rule="evenodd" d="M87.7873 39.0199L97.308 31.0301L90.3972 41.9043L87.7873 39.0199Z" fill="#D8DFE6"/>
</g>
<path fill-rule="evenodd" clip-rule="evenodd" d="M95.418 39.7566L91.0046 39.2954L97.3128 31.1087L95.418 39.7566Z" fill="#E8EAEB"/>
<path fill-rule="evenodd" clip-rule="evenodd" d="M87.292 45.2085C87.5677 44.625 87.8454 44.021 88.1249 43.3965L88.5813 43.6008C88.3003 44.2283 88.0213 44.8355 87.7441 45.4221L87.292 45.2085ZM85.4961 48.7685C85.8008 48.2063 86.108 47.6175 86.4177 47.002L86.8644 47.2267C86.5524 47.8467 86.2429 48.44 85.9357 49.0068L85.4961 48.7685ZM84.5161 50.501C84.1608 51.0999 83.8091 51.6612 83.4609 52.1848L83.8773 52.4616C84.2303 51.9307 84.5865 51.3622 84.9461 50.7561L84.5161 50.501ZM81.0215 55.2993C81.4432 54.8619 81.8712 54.3627 82.3054 53.8018L82.7008 54.1078C82.2559 54.6825 81.8162 55.1954 81.3814 55.6464L81.0215 55.2993ZM79.5528 56.5908C78.9684 57.0097 78.3992 57.2993 77.8457 57.4613L77.9861 57.9411C78.5968 57.7625 79.216 57.4474 79.8441 56.9972L79.5528 56.5908ZM74.3197 56.6436C74.8696 57.0869 75.4286 57.3773 75.9974 57.5174L75.8779 58.0029C75.2346 57.8445 74.6103 57.5202 74.0059 57.0328L74.3197 56.6436ZM72.9721 55.2244C72.9412 55.1838 72.9102 55.1427 72.8793 55.1011C72.4769 54.5594 72.1845 54.0452 71.998 53.5596L71.5312 53.7388C71.7349 54.2693 72.0496 54.8227 72.478 55.3993C72.5102 55.4427 72.5425 55.4856 72.5748 55.5279L72.9721 55.2244ZM72.8523 50.1941C72.3122 50.6402 71.9649 51.1522 71.8232 51.7235L71.3379 51.6031C71.5069 50.9215 71.9153 50.3195 72.5339 49.8086L72.8523 50.1941ZM74.5227 49.2542C75.0853 49.0345 75.7179 48.8553 76.4039 48.72L76.3072 48.2295C75.5933 48.3702 74.9323 48.5574 74.3408 48.7884L74.5227 49.2542ZM80.3184 48.435C79.6532 48.4113 78.9903 48.4223 78.3447 48.4678L78.3096 47.969C78.9729 47.9223 79.6534 47.911 80.3362 47.9353L80.3184 48.435ZM82.3086 48.6093C82.9788 48.7047 83.6272 48.8354 84.2396 48.9992L84.3688 48.5162C83.7366 48.3471 83.0687 48.2124 82.3791 48.1143L82.3086 48.6093ZM87.7567 50.6475C87.2995 50.2754 86.7416 49.9414 86.0977 49.6512L86.3031 49.1953C86.9847 49.5025 87.5795 49.8586 88.0723 50.2597L87.7567 50.6475ZM88.9482 52.1498C89.0689 52.4301 89.146 52.722 89.1786 53.0257C89.213 53.347 89.2249 53.6699 89.2143 53.9945L89.7141 54.0108C89.7254 53.663 89.7126 53.3168 89.6757 52.9724C89.6378 52.6187 89.5478 52.2781 89.4075 51.9521L88.9482 52.1498ZM88.1475 57.7198C88.4692 57.1128 88.7183 56.5122 88.895 55.918L89.3742 56.0604C89.1879 56.6872 88.9261 57.3185 88.5892 57.954L88.1475 57.7198ZM87.0886 59.3906C86.7187 59.8944 86.3005 60.4022 85.834 60.914L86.2035 61.2508C86.6816 60.7263 87.111 60.2049 87.4916 59.6866L87.0886 59.3906ZM82.9629 63.6198C83.4936 63.1804 83.9906 62.7437 84.4538 62.3096L84.7957 62.6744C84.3248 63.1156 83.8202 63.5591 83.2817 64.0049L82.9629 63.6198ZM81.3871 64.8584C80.8732 65.243 80.334 65.6294 79.7695 66.0178L80.053 66.4297C80.6228 66.0376 81.1673 65.6473 81.6866 65.2587L81.3871 64.8584ZM77.0518 67.7821C77.407 67.5635 77.7544 67.3454 78.0942 67.1279L78.3637 67.549C78.0215 67.7681 77.6716 67.9877 77.3138 68.2079L77.0518 67.7821Z" fill="#C7D0D9"/>
<defs>
<radialGradient id="paint0_radial_1305_4250" cx="0" cy="0" r="1" gradientUnits="userSpaceOnUse" gradientTransform="translate(65.5555 100.696) rotate(-90) scale(25.6701 268.099)">
<stop stop-color="#EBEDF0" stop-opacity="0.24"/>
<stop offset="0.536775" stop-color="#EBEDF0" stop-opacity="0.845525"/>
<stop offset="1" stop-color="#E0E4E7" stop-opacity="0.01"/>
</radialGradient>
<linearGradient id="paint1_linear_1305_4250" x1="57.2301" y1="116.418" x2="58.4313" y2="118.987" gradientUnits="userSpaceOnUse">
<stop stop-color="#E1E7EA"/>
<stop offset="1" stop-color="#D0D6DC"/>
</linearGradient>
<linearGradient id="paint2_linear_1305_4250" x1="95.4232" y1="101.796" x2="97.6211" y2="106.381" gradientUnits="userSpaceOnUse">
<stop stop-color="#E1E7EA"/>
<stop offset="1" stop-color="#D0D6DC"/>
</linearGradient>
<linearGradient id="paint3_linear_1305_4250" x1="25.8851" y1="93.0616" x2="27.1288" y2="98.0163" gradientUnits="userSpaceOnUse">
<stop stop-color="#FBFBFB"/>
<stop offset="1" stop-color="#D9DFE3"/>
</linearGradient>
<linearGradient id="paint4_linear_1305_4250" x1="56.7007" y1="95.81" x2="61.1384" y2="115.711" gradientUnits="userSpaceOnUse">
<stop stop-color="#C4CDD1"/>
<stop offset="1" stop-color="#C6CFD3" stop-opacity="0.01"/>
</linearGradient>
<linearGradient id="paint5_linear_1305_4250" x1="43.2942" y1="97.8148" x2="48.4421" y2="111.25" gradientUnits="userSpaceOnUse">
<stop stop-color="#C4CDD1"/>
<stop offset="1" stop-color="#C6CFD3" stop-opacity="0.01"/>
</linearGradient>
<linearGradient id="paint6_linear_1305_4250" x1="53.3929" y1="92.4264" x2="52.6592" y2="71.4169" gradientUnits="userSpaceOnUse">
<stop stop-color="#A1A7B8"/>
<stop offset="1" stop-color="#7B8195"/>
</linearGradient>
<linearGradient id="paint7_linear_1305_4250" x1="49.784" y1="56.8579" x2="49.784" y2="55.0979" gradientUnits="userSpaceOnUse">
<stop stop-color="#FBD8D6"/>
<stop offset="1" stop-color="#EAC0BE" stop-opacity="0.7"/>
</linearGradient>
<linearGradient id="paint8_linear_1305_4250" x1="35.6571" y1="64.0871" x2="49.566" y2="78.7597" gradientUnits="userSpaceOnUse">
<stop stop-color="#E5E9F0"/>
<stop offset="1" stop-color="#D2DAE8"/>
</linearGradient>
</defs>
</svg>
