<svg width="31" height="30" viewBox="0 0 31 30" fill="none" xmlns="http://www.w3.org/2000/svg">
<path d="M15.8877 14.525C15.8502 14.525 15.8252 14.525 15.7877 14.525C15.7252 14.5125 15.6377 14.5125 15.5627 14.525C11.9377 14.4125 9.2002 11.5625 9.2002 8.05C9.2002 4.475 12.1127 1.5625 15.6877 1.5625C19.2627 1.5625 22.1752 4.475 22.1752 8.05C22.1627 11.5625 19.4127 14.4125 15.9252 14.525C15.9127 14.525 15.9002 14.525 15.8877 14.525ZM15.6877 3.4375C13.1502 3.4375 11.0752 5.5125 11.0752 8.05C11.0752 10.55 13.0252 12.5625 15.5127 12.65C15.5752 12.6375 15.7502 12.6375 15.9127 12.65C18.3627 12.5375 20.2877 10.525 20.3002 8.05C20.3002 5.5125 18.2252 3.4375 15.6877 3.4375Z" fill="#313133"/>
<path d="M15.9002 28.1875C13.4502 28.1875 10.9877 27.5625 9.12518 26.3125C7.38768 25.1625 6.43768 23.5875 6.43768 21.875C6.43768 20.1625 7.38768 18.575 9.12518 17.4125C12.8752 14.925 18.9502 14.925 22.6752 17.4125C24.4002 18.5625 25.3627 20.1375 25.3627 21.85C25.3627 23.5625 24.4127 25.15 22.6752 26.3125C20.8002 27.5625 18.3502 28.1875 15.9002 28.1875ZM10.1627 18.9875C8.96268 19.7875 8.31268 20.8125 8.31268 21.8875C8.31268 22.95 8.97518 23.975 10.1627 24.7625C13.2752 26.85 18.5252 26.85 21.6377 24.7625C22.8377 23.9625 23.4877 22.9375 23.4877 21.8625C23.4877 20.8 22.8252 19.775 21.6377 18.9875C18.5252 16.9125 13.2752 16.9125 10.1627 18.9875Z" fill="#313133"/>
</svg>
