<svg width="101" height="100" viewBox="0 0 101 100" fill="none" xmlns="http://www.w3.org/2000/svg">
<g clip-path="url(#clip0_119_4720)">
<rect x="0.5" width="100" height="100" rx="50" fill="#00BA34" fill-opacity="0.1"/>
<path d="M81.8704 44.7559H18.1297V102.871H81.8704V44.7559Z" fill="#00BA34"/>
<path d="M81.8704 36.1299H18.1297V44.7561H81.8704V36.1299Z" fill="#D6B24E"/>
<path d="M11.7499 52.3667V56.8582C11.7499 61.0831 15.1749 64.5081 19.3999 64.5081C23.6248 64.5081 27.0498 61.0831 27.0498 56.8582V52.3667H11.7499Z" fill="#DD584D"/>
<path d="M27.0502 52.3667V56.8582C27.0502 61.0831 30.4752 64.5081 34.7003 64.5081C38.9252 64.5081 42.3502 61.0831 42.3502 56.8582V52.3667H27.0502Z" fill="#EDEDED"/>
<path d="M42.3501 52.3667V56.8582C42.3501 61.0831 45.7751 64.5081 50.0002 64.5081C54.2251 64.5081 57.6501 61.0831 57.6501 56.8582V52.3667H42.3501Z" fill="#DD584D"/>
<path d="M57.6499 52.3667V56.8582C57.6499 61.0831 61.0749 64.5081 65.2999 64.5081C69.5249 64.5081 72.9499 61.0831 72.9499 56.8582V52.3667H57.6499Z" fill="#EDEDED"/>
<path d="M72.9498 52.3667V56.8582C72.9498 61.0831 76.3748 64.5081 80.5998 64.5081C84.8248 64.5081 88.2498 61.0831 88.2498 56.8582V52.3667H72.9498Z" fill="#DD584D"/>
<path d="M30.8777 44.7559H18.1297L11.7503 52.367H27.0497L30.8777 44.7559Z" fill="#CD5248"/>
<path d="M43.6257 44.7559H30.8777L27.0498 52.367H42.35L43.6257 44.7559Z" fill="#DBD8DD"/>
<path d="M56.3746 44.7559H43.6258L42.3501 52.367H57.6503L56.3746 44.7559Z" fill="#CD5248"/>
<path d="M69.1225 44.7559H56.3745L57.6503 52.367H72.9505L69.1225 44.7559Z" fill="#DBD8DD"/>
<path d="M81.8704 44.7559H69.1224L72.9504 52.367H88.2498L81.8704 44.7559Z" fill="#CD5248"/>
<path d="M81.8704 96.5913H18.1297V102.87H81.8704V96.5913Z" fill="#BB9B45"/>
<path d="M61.0082 99.6011H38.9908V102.87H61.0082V99.6011Z" fill="#32786A"/>
<path d="M57.9514 75.0278H42.0477V99.6016H57.9514V75.0278Z" fill="#2D6D60"/>
<path d="M38.1745 83.8721H22.0019V93.0369H38.1745V83.8721Z" fill="#4288B9"/>
<path d="M38.7319 93.594H21.4456V83.3149H38.7319V93.594ZM22.5596 92.4801H37.6179V84.4289H22.5596V92.4801Z" fill="white"/>
<path d="M77.9979 83.8721H61.8253V93.0369H77.9979V83.8721Z" fill="#4288B9"/>
<path d="M78.5541 93.594H61.2678V83.3149H78.5541V93.594ZM62.3818 92.4801H77.4401V84.4289H62.3818V92.4801Z" fill="white"/>
</g>
<defs>
<clipPath id="clip0_119_4720">
<rect x="0.5" width="100" height="100" rx="50" fill="white"/>
</clipPath>
</defs>
</svg>
