<svg width="21" height="21" viewBox="0 0 21 21" fill="none" xmlns="http://www.w3.org/2000/svg">
<path d="M15.9475 9.37409C15.9358 10.5469 15.6302 11.698 15.0587 12.7222C14.4085 13.9101 13.4317 14.8869 12.2438 15.537C10.8875 16.2654 9.32965 16.5284 7.80942 16.2856C6.28919 16.0429 4.89069 15.3077 3.8287 14.1932C2.76672 13.0786 2.09998 11.6463 1.93088 10.1161C1.76178 8.58591 2.09968 7.04253 2.89267 5.72299C3.68567 4.40344 4.88991 3.3807 6.32045 2.81184C7.75099 2.24298 9.32872 2.15946 10.8113 2.57411C12.2939 2.98875 13.5994 3.87863 14.5273 5.10708C15.4552 6.33553 15.9541 7.83461 15.9475 9.37409Z" stroke="#808080" stroke-miterlimit="10" stroke-linecap="square"/>
<path d="M17.592 18.0704C17.4102 18.2538 17.1938 18.3994 16.9554 18.4988C16.7171 18.5981 16.4614 18.6493 16.2031 18.6493C15.9448 18.6493 15.6891 18.5981 15.4507 18.4988C15.2124 18.3994 14.996 18.2538 14.8142 18.0704L12.2438 15.537C13.4317 14.8869 14.4085 13.9101 15.0586 12.7222L17.592 15.263C17.7799 15.4453 17.9293 15.6634 18.0314 15.9046C18.1334 16.1457 18.186 16.4049 18.186 16.6667C18.186 16.9285 18.1334 17.1877 18.0314 17.4288C17.9293 17.6699 17.7799 17.8881 17.592 18.0704V18.0704Z" stroke="#808080" stroke-linecap="round" stroke-linejoin="round"/>
<path d="M5.48828 9.06297C5.48828 8.24178 5.8145 7.45423 6.39517 6.87356C6.97583 6.29289 7.76339 5.96667 8.58458 5.96667" stroke="#808080" stroke-linecap="round" stroke-linejoin="round"/>
</svg>
