<svg width="62" height="54" viewBox="0 0 62 54" fill="none" xmlns="http://www.w3.org/2000/svg">
<g clip-path="url(#clip0_5007_2966)">
<path fill-rule="evenodd" clip-rule="evenodd" d="M48.7173 33.5437C49.0187 33.1694 54.833 19.3827 55.1277 18.6623C55.5197 17.7041 56.4773 15.8483 56.6554 14.9186C56.9701 13.2754 55.8392 11.9573 54.5624 11.6687C53.7141 11.477 44.5196 11.4651 43.9949 11.6709C44.199 12.2279 45.5531 12.8641 45.0244 14.6561C44.7487 15.5911 43.8077 16.4137 42.6337 16.4154C40.9312 16.4179 39.5833 14.5727 40.4135 12.85C40.6889 12.2784 41.2316 12.0826 41.1265 11.6636C40.6072 11.4588 33.3797 11.4859 32.3966 11.6131C32.3982 11.9677 32.8693 12.2178 33.1352 12.7334C33.3872 13.2223 33.5185 13.777 33.4062 14.4109C33.2232 15.4432 32.3245 16.3362 31.1577 16.4132C28.7088 16.5748 27.7415 13.7347 29.1184 12.3288C29.4671 11.9727 29.4659 12.1532 29.5503 11.6709C28.8317 11.3699 26.4996 11.6075 25.5174 11.5787C25.2813 13.6784 27.1818 18.6617 27.9831 20.3417C28.6432 21.7257 29.3573 22.767 30.0491 23.8976C30.3643 24.4129 30.8694 25.1056 31.2304 25.5294L32.6008 27.0859C34.1852 28.8619 36.8952 30.7285 39.1348 31.7957C41.589 32.9653 45.6004 33.8348 48.7174 33.5439L48.7173 33.5437Z" fill="#00BA34"/>
<path fill-rule="evenodd" clip-rule="evenodd" d="M58.4999 30.8195C55.465 32.8299 50.9867 34.1939 47.1885 34.4906C39.1104 35.1215 30.6033 31.0732 26.6326 24.9741C25.7539 23.6242 25.5263 23.3956 24.6783 21.8943C23.4575 19.7326 22.52 17.1493 21.9194 14.7071C21.1745 11.6772 21.7117 11.5693 20.151 11.584C15.8552 11.6244 16.9171 13.7679 17.7771 17.5539L22.274 38.1182C22.6055 39.7038 22.8405 40.7743 24.2523 41.171C24.9659 41.3715 42.1255 41.3171 44.1529 41.2613C45.7564 41.2172 46.034 39.969 46.5752 38.6832C47.801 35.7708 47.3706 36.1732 48.7308 35.9156C52.0409 35.2889 56.4901 33.4045 59.1261 31.3309C59.7777 30.8183 61.7497 29.5098 61.4736 29.0219C61.2919 28.8853 61.5396 28.9535 61.2454 28.9376C61.0296 28.926 59.0177 30.4765 58.4999 30.8195Z" fill="#313133"/>
<path fill-rule="evenodd" clip-rule="evenodd" d="M24.1284 44.0176C19.7936 44.0184 19.9823 43.094 18.9458 38.7479C18.2803 35.9576 17.6171 33.1497 16.9301 30.3362C15.5636 24.7392 14.1983 19.0563 12.8823 13.4323C12.2887 10.8954 11.897 7.74033 9.14408 6.7476C7.69038 6.22335 5.85387 6.35744 4.22306 6.35744C2.73862 6.35744 0.240378 5.87846 0.521904 7.80711C0.734326 9.2626 3.4527 8.77994 4.80852 8.77681C9.9122 8.76489 9.27207 8.41802 11.4436 17.799C11.6117 18.5249 17.0808 41.7953 17.568 43.0539C18.8951 46.4826 21.6543 46.4917 24.5967 46.4575L40.2868 46.4263C41.8305 46.4263 44.287 46.9309 44.0826 45.043C43.9829 44.1216 43.3139 44.0106 42.3991 44.0147L24.1283 44.0177L24.1284 44.0176Z" fill="#313133"/>
<path fill-rule="evenodd" clip-rule="evenodd" d="M31.6833 12.1397C31.6869 10.3072 31.6651 8.46721 31.6804 6.6359C31.7203 1.85659 37.5709 -0.692471 40.9382 3.63735C41.9663 4.9592 41.866 6.425 41.8659 8.27567C41.8659 14.4433 41.8211 11.4187 41.0725 13.0389C40.3246 14.6574 41.6526 16.1586 43.2915 15.6175C44.8405 15.1061 44.7698 12.7304 43.2844 12.3087C43.284 9.67093 43.6505 5.72123 42.6086 3.61315C41.697 1.76884 39.6244 -0.00375845 36.774 5.98516e-06C33.952 0.00368079 31.8162 1.7891 30.939 3.6118C29.8587 5.85639 30.2891 9.58767 30.2512 12.3207C29.4661 12.7142 29.0198 13.3546 29.2136 14.3081C29.6106 16.2609 32.4863 16.134 32.7413 14.1977C32.9207 12.8365 32.0289 12.7378 31.6833 12.1397Z" fill="#00BA34"/>
<path fill-rule="evenodd" clip-rule="evenodd" d="M28.1577 51.7162C28.9408 48.4664 23.7863 47.2275 23.0212 50.6034C22.6532 52.2271 23.7757 53.4926 25.0316 53.749C26.6476 54.0788 27.8575 52.962 28.1577 51.7162Z" fill="#00BA34"/>
<path fill-rule="evenodd" clip-rule="evenodd" d="M32.863 51.5993C33.3814 54.8862 38.543 54.3234 38.055 50.7907C37.8701 49.4519 36.6591 48.373 35.062 48.5995C33.7891 48.78 32.6233 50.0787 32.863 51.5993Z" fill="#00BA34"/>
<path fill-rule="evenodd" clip-rule="evenodd" d="M30.073 53.4468C32.4802 52.0957 30.7869 47.4992 27.6888 48.8343C28.1649 49.2785 28.7129 50.277 28.5987 51.3667C28.4464 52.8202 27.7049 52.8691 27.3525 53.6134C28.4802 53.8795 29.0134 54.0416 30.073 53.4468Z" fill="#313133"/>
<path fill-rule="evenodd" clip-rule="evenodd" d="M37.2416 53.5887C41.8575 55.3654 42.6572 47.8269 37.5698 48.7776C37.9067 49.5753 38.6212 49.7787 38.4832 51.332C38.3702 52.6037 37.6375 52.9884 37.2416 53.5887Z" fill="#313133"/>
</g>
<defs>
<clipPath id="clip0_5007_2966">
<rect width="61" height="53.8605" fill="white" transform="translate(0.5)"/>
</clipPath>
</defs>
</svg>
