<svg width="95" height="95" viewBox="0 0 95 95" fill="none" xmlns="http://www.w3.org/2000/svg">
<g clip-path="url(#clip0_112_3575)">
<path d="M47.5 94.8834C73.7014 94.8834 94.9417 73.643 94.9417 47.4417C94.9417 21.2404 73.7014 0 47.5 0C21.2987 0 0.0583496 21.2404 0.0583496 47.4417C0.0583496 73.643 21.2987 94.8834 47.5 94.8834Z" fill="#00BA34"/>
<path d="M57.4824 93.7648C58.3922 93.5884 59.2966 93.3853 60.1945 93.156C61.717 92.7304 63.2172 92.229 64.6896 91.6536C66.1639 91.0831 67.6087 90.4392 69.0187 89.7243C70.429 89.0067 71.8026 88.219 73.1342 87.3641C74.4643 86.5091 75.7508 85.5881 76.9889 84.6046C78.2291 83.6197 79.4193 82.5734 80.5549 81.4695C81.6886 80.3683 82.7666 79.2111 83.7849 78.0023C84.804 76.7924 85.7619 75.5323 86.6551 74.2267C87.5481 72.9233 88.3754 71.5762 89.1339 70.1902C89.8926 68.8023 90.5814 67.3772 91.1976 65.9205C91.8146 64.4634 92.3582 62.9763 92.8265 61.4649C93.2275 60.1416 93.5704 58.8014 93.8544 57.4482L65.6661 29.2639C63.2856 26.8728 60.4558 24.9761 57.3394 23.6829C54.2231 22.3897 50.8818 21.7255 47.5078 21.7285C44.1308 21.7248 40.7863 22.3887 37.6667 23.6818C34.547 24.975 31.7138 26.872 29.3297 29.2639C26.9397 31.6486 25.0435 34.4814 23.7498 37.6C22.456 40.7185 21.79 44.0617 21.79 47.438C21.79 50.8143 22.456 54.1574 23.7498 57.276C25.0435 60.3946 26.9397 63.2273 29.3297 65.6121L57.4824 93.7608V93.7648Z" fill="#00992B"/>
<path d="M47.5036 21.7324C54.0743 21.7324 60.645 24.2429 65.6738 29.2678C68.0638 31.6525 69.96 34.4853 71.2538 37.6039C72.5476 40.7225 73.2135 44.0656 73.2135 47.4419C73.2135 50.8182 72.5476 54.1613 71.2538 57.2799C69.96 60.3985 68.0638 63.2312 65.6738 65.616C63.289 68.006 60.4563 69.9022 57.3377 71.196C54.2191 72.4897 50.876 73.1557 47.4997 73.1557C44.1234 73.1557 40.7803 72.4897 37.6617 71.196C34.5431 69.9022 31.7103 68.006 29.3256 65.616C26.9355 63.2312 25.0394 60.3985 23.7456 57.2799C22.4518 54.1613 21.7859 50.8182 21.7859 47.4419C21.7859 44.0656 22.4518 40.7225 23.7456 37.6039C25.0394 34.4853 26.9355 31.6525 29.3256 29.2678C31.7096 26.8759 34.5429 24.9789 37.6625 23.6858C40.7821 22.3926 44.1266 21.7288 47.5036 21.7324ZM59.2059 39.531C58.8317 39.5668 58.4753 39.708 58.178 39.9382L43.732 50.7707L37.0388 44.0814C35.5879 42.5712 32.7295 45.4256 34.2437 46.8765L42.1506 54.7835C42.4934 55.1076 42.9377 55.3032 43.4083 55.3371C43.8788 55.371 44.3466 55.241 44.7323 54.9693L60.5462 43.1089C61.8745 42.1403 61.0562 39.5587 59.4115 39.5349C59.3443 39.5315 59.2771 39.5315 59.2099 39.5349L59.2059 39.531Z" fill="white"/>
</g>
<defs>
<clipPath id="clip0_112_3575">
<rect width="94.8834" height="94.8834" fill="white" transform="translate(0.0583496)"/>
</clipPath>
</defs>
</svg>
