<svg width="25" height="24" viewBox="0 0 25 24" fill="none" xmlns="http://www.w3.org/2000/svg">
<g clip-path="url(#clip0_1615_238)">
<path d="M8.38977 22.5003C17.4468 22.5003 22.4013 14.9958 22.4013 8.49931C22.4013 8.28931 22.4013 8.07631 22.3923 7.86631C23.3569 7.16804 24.1894 6.30353 24.8508 5.31331C23.9497 5.71058 22.9949 5.97242 22.0173 6.09031C23.0471 5.47476 23.8184 4.50626 24.1878 3.36481C23.2202 3.93799 22.1613 4.34037 21.0573 4.55431C20.315 3.76384 19.3329 3.24018 18.2629 3.06444C17.1929 2.8887 16.0949 3.07069 15.1388 3.58221C14.1827 4.09374 13.422 4.90625 12.9744 5.8939C12.5269 6.88154 12.4175 7.98921 12.6633 9.04531C10.7054 8.94713 8.78999 8.43851 7.04133 7.55242C5.29267 6.66633 3.7498 5.42257 2.51277 3.90181C1.88478 4.98643 1.69313 6.26941 1.97674 7.49021C2.26035 8.711 2.99795 9.7781 4.03977 10.4748C3.25908 10.4483 2.49555 10.2386 1.81077 9.86281V9.93031C1.81212 11.0665 2.20573 12.1674 2.92508 13.0469C3.64443 13.9265 4.64539 14.5306 5.75877 14.7573C5.33616 14.8737 4.89961 14.9318 4.46127 14.9298C4.15225 14.9307 3.84384 14.9021 3.54027 14.8443C3.85495 15.8224 4.46768 16.6776 5.29264 17.29C6.1176 17.9025 7.11347 18.2416 8.14077 18.2598C6.3956 19.6305 4.23987 20.3739 2.02077 20.3703C1.62975 20.372 1.239 20.3494 0.850769 20.3028C3.10304 21.7387 5.71872 22.5011 8.38977 22.5003Z" fill="#00BA34"/>
</g>
<defs>
<clipPath id="clip0_1615_238">
<rect width="24" height="24" fill="white" transform="translate(0.850769)"/>
</clipPath>
</defs>
</svg>
