<svg width="42" height="14" viewBox="0 0 42 14" fill="none" xmlns="http://www.w3.org/2000/svg">
<path d="M7.90121 14C11.7672 14 14.9012 10.866 14.9012 7C14.9012 3.13401 11.7672 0 7.90121 0C4.03522 0 0.901215 3.13401 0.901215 7C0.901215 10.866 4.03522 14 7.90121 14Z" fill="#00BA34"/>
<path d="M7.90129 9.99829C6.33567 6.44916 5.18755 3.13379 5.18755 3.13379H2.7872C2.7872 3.13379 4.24819 7.38927 6.96192 12.711H8.84066C11.5544 7.38927 13.0154 3.13379 13.0154 3.13379H10.615C10.615 3.13379 9.46691 6.44916 7.90129 9.99829Z" fill="white"/>
<path d="M41.4111 9.55695H36.7149C36.7149 9.55695 36.8192 11.1227 38.9065 11.1227C39.95 11.1227 40.9937 10.8093 40.9937 10.8093L41.2024 12.479C41.2024 12.479 40.1588 12.8965 38.6977 12.8965C36.6106 12.8965 34.7321 11.8529 34.7321 8.9308C34.7321 6.63486 36.1931 5.17383 38.2803 5.17383C41.4111 5.17383 41.6199 8.30463 41.4111 9.55695ZM38.176 6.63485C36.8192 6.63485 36.7149 8.09588 36.7149 8.09588H39.637C39.637 8.09588 39.5326 6.63485 38.176 6.63485Z" fill="#00BA34"/>
<path d="M25.2744 7.07592L25.5874 5.40614C25.5874 5.40614 23.1696 4.67244 21.2043 6.0323V12.7112H23.2916L23.2915 7.28463C24.1263 6.65847 25.2744 7.07592 25.2744 7.07592Z" fill="#00BA34"/>
<path d="M19.5704 9.55695H14.8742C14.8742 9.55695 14.9785 11.1227 17.0657 11.1227C18.1093 11.1227 19.1529 10.8093 19.1529 10.8093L19.3616 12.479C19.3616 12.479 18.3181 12.8965 16.857 12.8965C14.7698 12.8965 12.8913 11.8529 12.8913 8.9308C12.8913 6.63486 14.3523 5.17383 16.4396 5.17383C19.5704 5.17383 19.779 8.30463 19.5704 9.55695ZM16.3352 6.63485C14.9785 6.63485 14.8742 8.09588 14.8742 8.09588H17.7962C17.7962 8.09588 17.6919 6.63485 16.3352 6.63485Z" fill="#00BA34"/>
<path d="M30.3434 10.2076C29.6946 8.62973 29.1712 7.00316 28.778 5.34302L26.6909 5.34329C26.6909 5.34329 27.7345 9.37245 29.5088 12.7111H31.1781C32.9523 9.37245 33.9959 5.34404 33.9959 5.34404H31.9088C31.5155 7.00382 30.9921 8.63004 30.3434 10.2076Z" fill="#00BA34"/>
</svg>
