<svg width="38" height="12" viewBox="0 0 38 12" fill="none" xmlns="http://www.w3.org/2000/svg">
<path d="M27.7723 0.950109C27.1743 0.731769 26.2425 0.5 25.0836 0.5C22.1168 0.5 20.023 1.94753 20.0075 4.02161C19.989 5.5469 21.4971 6.40525 22.636 6.91667C23.8057 7.44005 24.1966 7.76903 24.1936 8.24008C24.1861 8.95337 23.2587 9.27637 22.398 9.27637C21.2144 9.27637 20.5654 9.11638 19.5687 8.71561L19.1994 8.54962L18.7806 10.9392C19.5007 11.2308 20.7987 11.4806 22.1415 11.5C25.2953 11.5 27.3566 10.0629 27.3813 7.85277C27.4061 6.63703 26.5933 5.71438 24.8765 4.95473C23.8351 4.46125 23.1861 4.13078 23.1861 3.62982C23.1861 3.18719 23.7408 2.71465 24.8997 2.71465C25.8964 2.69982 26.5933 2.90756 27.148 3.12289L27.4262 3.24401L27.8449 0.935144L27.7723 0.950109ZM35.4721 0.695888H33.1543C32.4327 0.695888 31.8934 0.885796 31.5766 1.57966L27.1187 11.3505H30.2725L30.9029 9.75041L34.7505 9.7534C34.8447 10.1272 35.1214 11.3505 35.1214 11.3505H37.9012L35.4721 0.695888ZM15.7427 0.606171H18.7451L16.8676 11.2667H13.8637L15.7427 0.606171ZM8.11086 6.48151L8.42299 7.96194L11.3605 0.695894H14.5421L9.81215 11.3355H6.63826L4.04228 2.32436C3.9882 2.17034 3.92176 2.06566 3.76414 1.96996C2.88646 1.52583 1.90524 1.16395 0.815857 0.912725L0.854488 0.688421H5.69258C6.34776 0.712218 6.87622 0.912727 7.05702 1.59163L8.11086 6.486V6.48151ZM31.7651 7.56865L32.9627 4.58687C32.9472 4.61685 33.2099 3.97077 33.3614 3.57001L33.5669 4.48967L34.2607 7.56566L31.7651 7.56865Z" fill="#00BA34"/>
</svg>
