<svg width="20" height="20" viewBox="0 0 20 20" fill="none" xmlns="http://www.w3.org/2000/svg">
<path d="M9.10009 16.4583C8.85843 16.4583 8.62508 16.425 8.43341 16.35C5.58341 15.375 1.04175 11.8916 1.04175 6.74164C1.04175 4.09997 3.17507 1.95831 5.80007 1.95831C7.05841 1.95831 8.23341 2.44163 9.10841 3.29997C9.99174 2.44163 11.1584 1.95831 12.4167 1.95831C15.0417 1.95831 17.1751 4.09997 17.1751 6.74164C17.1751 7.09997 17.1501 7.46664 17.1001 7.84164C17.0751 8.03331 16.9584 8.20831 16.7917 8.30831C16.6251 8.40831 16.4168 8.41665 16.2334 8.34165C15.2084 7.89998 13.9334 8.23332 13.2668 9.12498C13.1501 9.28332 12.9251 9.36664 12.7668 9.37497C12.5668 9.37497 12.3834 9.28332 12.2667 9.12498C11.7917 8.49165 11.0667 8.13332 10.2834 8.13332C8.92508 8.13332 7.81675 9.24997 7.81675 10.625C7.81675 12.7916 9.05842 14.3333 10.1084 15.2583C10.2584 15.3916 10.3334 15.5833 10.3168 15.7833C10.3001 15.9833 10.1917 16.1583 10.0167 16.2666C9.92507 16.3166 9.85007 16.35 9.80841 16.3583C9.59174 16.425 9.35009 16.4583 9.10009 16.4583ZM5.80007 3.20831C3.86674 3.20831 2.29175 4.79164 2.29175 6.74164C2.29175 11.1 5.91675 13.7833 8.00009 14.8166C7.20842 13.7583 6.55841 12.3583 6.55841 10.6166C6.55841 8.54997 8.22507 6.87497 10.2751 6.87497C11.2084 6.87497 12.0834 7.21665 12.7584 7.82499C13.6001 7.07499 14.8001 6.7333 15.9168 6.94163C15.9168 6.87496 15.9168 6.80831 15.9168 6.74998C15.9168 4.79998 14.3418 3.21663 12.4084 3.21663C11.3001 3.21663 10.2751 3.7333 9.60007 4.62496C9.48341 4.7833 9.30009 4.87498 9.10009 4.87498C8.90009 4.87498 8.71675 4.7833 8.60009 4.62496C7.94175 3.72496 6.91674 3.20831 5.80007 3.20831Z" fill="#555555"/>
<path d="M12.7669 18.0417C12.5752 18.0417 12.3752 18.0167 12.2169 17.9583C11.5002 17.7167 10.3419 17.125 9.28353 16.1833C8.0502 15.0917 6.5752 13.2417 6.5752 10.6167C6.5752 8.54999 8.24185 6.875 10.2919 6.875C11.2252 6.875 12.1002 7.21668 12.7752 7.82501C13.8252 6.88335 15.4252 6.61667 16.7418 7.19167C18.0918 7.79167 18.9669 9.14167 18.9669 10.625C18.9669 14.575 15.5002 17.225 13.3169 17.9667C13.1502 18.0167 12.9585 18.0417 12.7669 18.0417ZM10.2835 8.125C8.92518 8.125 7.81685 9.24166 7.81685 10.6167C7.81685 12.7833 9.05852 14.325 10.1085 15.25C11.0335 16.0667 12.0085 16.575 12.6169 16.775C12.6835 16.8 12.8419 16.8 12.9002 16.775C14.1502 16.35 17.7085 14.3083 17.7085 10.6167C17.7085 9.62499 17.1252 8.725 16.2335 8.33333C15.2252 7.89167 13.9335 8.225 13.2669 9.11667C13.1502 9.275 12.9252 9.35833 12.7669 9.36666C12.5669 9.36666 12.3835 9.275 12.2669 9.11667C11.7919 8.48334 11.0668 8.125 10.2835 8.125Z" fill="#555555"/>
</svg>
