<svg width="147" height="54" viewBox="0 0 147 54" fill="none" xmlns="http://www.w3.org/2000/svg">
<g clip-path="url(#clip0_1615_1366)">
<path fill-rule="evenodd" clip-rule="evenodd" d="M48.2173 33.6138C48.5187 33.2394 54.333 19.4527 54.6277 18.7323C55.0197 17.7741 55.9773 15.9183 56.1554 14.9886C56.4701 13.3454 55.3392 12.0273 54.0624 11.7387C53.2141 11.547 44.0196 11.5351 43.4949 11.7409C43.699 12.2979 45.0531 12.9341 44.5244 14.7261C44.2487 15.6611 43.3077 16.4837 42.1337 16.4854C40.4312 16.4879 39.0833 14.6427 39.9135 12.92C40.1889 12.3484 40.7316 12.1526 40.6265 11.7336C40.1072 11.5288 32.8797 11.5559 31.8966 11.6831C31.8982 12.0377 32.3693 12.2878 32.6352 12.8034C32.8872 13.2923 33.0185 13.847 32.9062 14.4809C32.7232 15.5132 31.8245 16.4062 30.6577 16.4832C28.2088 16.6448 27.2415 13.8047 28.6184 12.3988C28.9671 12.0427 28.9659 12.2232 29.0503 11.7409C28.3317 11.4399 25.9996 11.6775 25.0174 11.6487C24.7813 13.7484 26.6818 18.7317 27.4831 20.4117C28.1432 21.7957 28.8573 22.837 29.5491 23.9677C29.8643 24.4829 30.3694 25.1756 30.7304 25.5994L32.1008 27.1559C33.6852 28.9319 36.3952 30.7985 38.6348 31.8657C41.089 33.0353 45.1004 33.9048 48.2174 33.6139L48.2173 33.6138Z" fill="#00BA34"/>
<path fill-rule="evenodd" clip-rule="evenodd" d="M57.9999 30.8897C54.965 32.9002 50.4867 34.2642 46.6885 34.5609C38.6104 35.1918 30.1033 31.1435 26.1326 25.0444C25.2539 23.6944 25.0263 23.4658 24.1783 21.9645C22.9575 19.8028 22.02 17.2195 21.4194 14.7773C20.6745 11.7475 21.2117 11.6396 19.651 11.6543C15.3552 11.6947 16.4171 13.8382 17.2771 17.6241L21.774 38.1884C22.1055 39.7741 22.3405 40.8446 23.7523 41.2413C24.4659 41.4418 41.6255 41.3874 43.6529 41.3316C45.2564 41.2875 45.534 40.0393 46.0752 38.7535C47.301 35.841 46.8706 36.2435 48.2308 35.9859C51.5409 35.3592 55.9901 33.4747 58.6261 31.4011C59.2777 30.8886 61.2497 29.5801 60.9736 29.0921C60.7919 28.9555 61.0396 29.0237 60.7454 29.0079C60.5296 28.9962 58.5177 30.5467 57.9999 30.8897Z" fill="#313133"/>
<path fill-rule="evenodd" clip-rule="evenodd" d="M23.6284 44.0876C19.2936 44.0884 19.4823 43.164 18.4458 38.8179C17.7803 36.0277 17.1171 33.2197 16.4301 30.4062C15.0636 24.8092 13.6983 19.1263 12.3823 13.5023C11.7887 10.9654 11.397 7.81034 8.64408 6.8176C7.19038 6.29336 5.35387 6.42745 3.72306 6.42745C2.23862 6.42745 -0.259622 5.94847 0.0219041 7.87711C0.234326 9.33261 2.9527 8.84995 4.30852 8.84681C9.4122 8.83489 8.77207 8.48803 10.9436 17.869C11.1117 18.5949 16.5808 41.8653 17.068 43.1239C18.3951 46.5526 21.1543 46.5617 24.0967 46.5275L39.7868 46.4963C41.3305 46.4963 43.787 47.0009 43.5826 45.113C43.4829 44.1916 42.8139 44.0806 41.8991 44.0847L23.6283 44.0877L23.6284 44.0876Z" fill="#313133"/>
<path fill-rule="evenodd" clip-rule="evenodd" d="M31.1833 12.2095C31.1869 10.377 31.1651 8.53703 31.1804 6.70573C31.2203 1.92641 37.0709 -0.622647 40.4382 3.70717C41.4663 5.02903 41.366 6.49483 41.3659 8.3455C41.3659 14.5131 41.3211 11.4885 40.5725 13.1088C39.8246 14.7272 41.1526 16.2284 42.7915 15.6873C44.3405 15.1759 44.2698 12.8003 42.7844 12.3786C42.784 9.74076 43.1505 5.79106 42.1086 3.68297C41.197 1.83867 39.1244 0.0660658 36.274 0.0698302C33.452 0.073505 31.3162 1.85892 30.439 3.68163C29.3587 5.92622 29.7891 9.65749 29.7512 12.3906C28.9661 12.784 28.5198 13.4244 28.7136 14.3779C29.1106 16.3308 31.9863 16.2038 32.2413 14.2675C32.4207 12.9063 31.5289 12.8076 31.1833 12.2095Z" fill="#00BA34"/>
<path fill-rule="evenodd" clip-rule="evenodd" d="M27.6577 51.786C28.4408 48.5362 23.2863 47.2972 22.5212 50.6732C22.1532 52.2968 23.2757 53.5624 24.5316 53.8187C26.1476 54.1486 27.3575 53.0317 27.6577 51.786Z" fill="#00BA34"/>
<path fill-rule="evenodd" clip-rule="evenodd" d="M32.363 51.6692C32.8814 54.9561 38.043 54.3932 37.555 50.8605C37.3701 49.5217 36.1591 48.4429 34.562 48.6694C33.2891 48.8498 32.1233 50.1485 32.363 51.6692Z" fill="#00BA34"/>
<path fill-rule="evenodd" clip-rule="evenodd" d="M29.573 53.5165C31.9802 52.1654 30.2869 47.5689 27.1888 48.904C27.6649 49.3482 28.2129 50.3467 28.0987 51.4364C27.9464 52.8899 27.2049 52.9388 26.8525 53.6831C27.9802 53.9492 28.5134 54.1113 29.573 53.5165Z" fill="#313133"/>
<path fill-rule="evenodd" clip-rule="evenodd" d="M36.7416 53.6582C41.3575 55.4349 42.1572 47.8964 37.0698 48.8472C37.4067 49.6449 38.1212 49.8482 37.9832 51.4015C37.8702 52.6733 37.1375 53.058 36.7416 53.6582Z" fill="#313133"/>
</g>
<path d="M76.6325 26.2278H78.4858C80.2179 26.2278 81.514 25.8887 82.3741 25.2103C83.2341 24.5199 83.6641 23.5206 83.6641 22.2124C83.6641 20.8921 83.3007 19.917 82.5739 19.2871C81.8593 18.6572 80.7327 18.3423 79.1944 18.3423H76.6325V26.2278ZM89.3511 22.0125C89.3511 24.8712 88.4547 27.0576 86.662 28.5717C84.8814 30.0858 82.3438 30.8428 79.049 30.8428H76.6325V37.4747C76.6325 39.0301 75.3716 40.2909 73.8163 40.2909C72.2609 40.2909 71 39.0301 71 37.4747V22.2124C71 17.5262 74.7989 13.7273 79.4851 13.7273C82.7072 13.7273 85.154 14.4238 86.8256 15.8167C88.5093 17.1976 89.3511 19.2629 89.3511 22.0125Z" fill="#00BA34"/>
<path d="M121.031 37.178C120.565 39.0092 118.916 40.2909 117.027 40.2909C115.142 40.2909 113.497 39.0156 113.026 37.1906L110.228 26.3368C110.095 25.8402 109.864 24.8167 109.537 23.2662C109.222 21.7036 109.041 20.6559 108.992 20.1229C108.92 20.777 108.738 21.8308 108.447 23.2844C108.156 24.7258 107.932 25.7554 107.775 26.3732L104.991 37.197C104.523 39.018 102.881 40.2909 101.001 40.2909C99.1176 40.2909 97.4741 39.0141 97.0086 37.1893L91.8705 17.0503C91.4407 15.3656 92.7135 13.7273 94.4522 13.7273C95.6895 13.7273 96.764 14.5791 97.0463 15.7837L99.962 28.2264C100.26 29.5718 100.517 30.827 100.733 31.9919C100.817 32.4452 101.663 32.4415 101.743 31.9875C102.009 30.534 102.257 29.4075 102.488 28.608L105.688 16.3034C106.082 14.7863 107.452 13.7273 109.019 13.7273C110.587 13.7273 111.957 14.7863 112.351 16.3034L115.551 28.608C115.721 29.2742 115.933 30.2917 116.187 31.6605C116.288 32.2025 117.247 32.2021 117.35 31.6605C117.617 30.2433 117.859 29.0986 118.077 28.2264L120.976 15.7867C121.258 14.5806 122.333 13.7273 123.571 13.7273C125.309 13.7273 126.582 15.3643 126.153 17.0485L121.031 37.178Z" fill="#00BA34"/>
<path d="M146.021 32.9142C146.021 35.3125 145.155 37.2021 143.423 38.583C141.703 39.9639 139.305 40.6543 136.228 40.6543C133.977 40.6543 131.932 40.3181 130.094 39.6458C129.227 39.3287 128.706 38.47 128.706 37.5467C128.706 35.7964 130.506 34.643 132.169 35.1899C132.55 35.3152 132.909 35.4227 133.248 35.5124C134.496 35.8394 135.635 36.003 136.664 36.003C137.9 36.003 138.845 35.7668 139.499 35.2943C140.165 34.8219 140.498 34.1194 140.498 33.1867C140.498 32.6658 140.353 32.2055 140.062 31.8058C139.771 31.394 139.341 31.0003 138.772 30.6248C138.215 30.2493 137.07 29.6497 135.338 28.826C133.715 28.0629 132.497 27.3301 131.686 26.6275C130.874 25.925 130.226 25.1074 129.742 24.1747C129.257 23.242 129.015 22.1518 129.015 20.9042C129.015 18.5543 129.808 16.707 131.395 15.3625C132.994 14.018 135.199 13.3457 138.009 13.3457C139.39 13.3457 140.704 13.5092 141.952 13.8363C142.523 13.9846 143.105 14.1602 143.699 14.3633C144.936 14.7865 145.492 16.186 144.991 17.3936C144.486 18.6114 143.097 19.1733 141.845 18.758C141.372 18.601 140.941 18.4746 140.552 18.3786C139.632 18.1485 138.723 18.0334 137.827 18.0334C136.761 18.0334 135.944 18.2817 135.374 18.7784C134.805 19.275 134.52 19.923 134.52 20.7225C134.52 21.2191 134.635 21.6552 134.865 22.0307C135.096 22.3941 135.459 22.7514 135.956 23.1027C136.464 23.4418 137.658 24.0596 139.535 24.956C142.018 26.143 143.72 27.3361 144.641 28.5353C145.561 29.7224 146.021 31.182 146.021 32.9142Z" fill="#00BA34"/>
<defs>
<clipPath id="clip0_1615_1366">
<rect width="61" height="53.8605" fill="white" transform="translate(0 0.0697632)"/>
</clipPath>
</defs>
</svg>
